<svg xmlns="http://www.w3.org/2000/svg" viewBox="0 0 675.37 698.27"><defs><style>.cls-1{fill:#fff;}</style></defs><title>dc</title><g id="Layer_2" data-name="Layer 2"><g id="Layer_1-2" data-name="Layer 1"><path class="cls-1" d="M675.37,307.11v-15c0-47-7.88-89.23-23.43-125.46-15.66-36.46-38.11-67.49-66.73-92.23C556.75,49.82,522.05,31,482.08,18.54,442.64,6.24,398.14,0,349.82,0H0V348.23H30V30H200.68c34.86,0,65.94,4.13,92.39,12.27,25.69,7.92,47.45,20,64.66,36.07s30.31,36.44,39.19,60.94c2,5.59,3.94,15.09,5.61,24.93-15.57-6.23-33.6-9.39-53.62-9.39-21.1,0-39.83,3.2-55.82,9.52a90.48,90.48,0,0,0-17.64-31.82,81.44,81.44,0,0,0-32.92-22.42c-12.62-4.79-27.52-7.21-44.28-7.21H137.59V356h60.66q7.14,0,13.82-.59v23.72a280,280,0,0,0,4.24,49.76H35.84a520.09,520.09,0,0,1-5.84-80H0c0,56.65,7.39,107.2,22,150.24C36.78,542.85,59.38,580,89.16,609.63s67,52.07,110.67,66.79c43,14.5,93.5,21.85,150,21.85,50.4,0,96.11-6.15,135.84-18.29,40.32-12.31,75-30.89,103-55.23,28.23-24.5,50-55.22,64.75-91.31,14.56-35.7,22-77.14,22-123.16v-15H453.91v15c0,33.23-8.51,58.22-26,76.39-17.12,17.77-44.31,26.79-80.81,26.79-18.68,0-34.74-3.2-47.73-9.49a84.72,84.72,0,0,1-31.84-26.16c-8.53-11.45-14.93-25.53-19-41.85-4.26-17-6.42-36.17-6.42-56.82V349l.46-.16a81.34,81.34,0,0,0,32.92-22.42,91.3,91.3,0,0,0,18.62-34.89c3.73-12.77,5.63-27.35,5.63-43.32V210.73q0-8.8-.77-17l.31.66c13.31-6.33,30-9.54,49.67-9.54,16.55,0,31.11,2.54,43.28,7.56a82.35,82.35,0,0,1,30.07,20.9,91.51,91.51,0,0,1,18.65,33.1c4.37,13.4,6.59,28.79,6.59,45.73v15ZM243.43,495.73A115.66,115.66,0,0,0,286.25,531c17.1,8.29,37.57,12.5,60.82,12.5,45,0,79.42-12.11,102.41-36,20-20.73,31.34-48.33,33.88-82.21H645.08c-1.4,36.09-7.92,68.6-19.44,96.82-12.93,31.7-32,58.61-56.63,80-24.85,21.57-55.84,38.12-92.11,49.2-36.89,11.27-79.65,17-127.08,17-53.23,0-100.47-6.82-140.41-20.28-39.29-13.24-72.63-33.3-99.1-59.63s-46.62-59.57-59.92-98.84q-5-14.65-8.73-30.62H224.1A139.42,139.42,0,0,0,243.43,495.73ZM269.7,248.17c0,13.12-1.49,24.87-4.42,34.91a61.67,61.67,0,0,1-12.43,23.56,50.9,50.9,0,0,1-21,14.11c-9.19,3.49-20.51,5.26-33.63,5.26H167.59V132.89h30.66c13.11,0,24.43,1.77,33.63,5.26,8.71,3.31,15.57,7.92,21,14.11a61.67,61.67,0,0,1,12.43,23.56c2.93,10,4.42,21.79,4.42,34.91Zm174.86-55a106.15,106.15,0,0,0-8.52-8.45l-.49-3.34c-2.59-17.66-5.82-39.64-10.42-52.36-10.52-29-26.32-53.47-47-72.68A180,180,0,0,0,341.22,30h8.6c45.29,0,86.78,5.78,123.33,17.18,36,11.24,67.12,28,92.44,49.93,25.16,21.75,44.94,49.12,58.78,81.37,12.29,28.64,19.24,61.76,20.7,98.63H477a167.61,167.61,0,0,0-7.54-40A121.25,121.25,0,0,0,444.56,193.21Z"/></g></g></svg>
