<svg xmlns="http://www.w3.org/2000/svg" viewBox="0 0 70.87 70.87"><defs><style>.cls-1{fill:#21221F;}</style></defs><title>hal</title><g id="Layer_2" data-name="Layer 2"><g id="Layer_1-2" data-name="Layer 1"><path class="cls-1" d="M35.43,14.39a21,21,0,1,0,21,21A21.07,21.07,0,0,0,35.43,14.39Zm0,40a19,19,0,1,1,19-19A19,19,0,0,1,35.43,54.4Z"/><path class="cls-1" d="M35.43,42.51a7.08,7.08,0,1,1,7.08-7.08A7.08,7.08,0,0,1,35.43,42.51Zm10.79-7.08a11.56,11.56,0,0,0-1.06-4,10.91,10.91,0,0,0-2.39-3.31,10.69,10.69,0,0,0-14.68,0A11.26,11.26,0,0,0,25.7,31.4a11.55,11.55,0,0,0-1.05,4,10,10,0,0,1,.58-4.22A10.81,10.81,0,0,1,31.12,25a10.91,10.91,0,0,1,8.63,0,10.92,10.92,0,0,1,3.6,2.51,10.74,10.74,0,0,1,2.29,3.69A10.34,10.34,0,0,1,46.22,35.43Z"/><path class="cls-1" d="M0,0V70.87H70.87V0ZM35.43,59.19A23.76,23.76,0,1,1,59.19,35.43,23.78,23.78,0,0,1,35.43,59.19Z"/></g></g></svg>
