<svg xmlns="http://www.w3.org/2000/svg" viewBox="0 0 393.36 393.36"><defs><style>.cls-1{fill:#fff;}</style></defs><title>Asset 13</title><g id="Layer_2" data-name="Layer 2"><g id="Layer_1-2" data-name="Layer 1"><path class="cls-1" d="M196.77,62.33l44.55-44.78C230.41,2.81,209.7,0,196.74,0h-.06c-13,0-33.67,2.81-44.59,17.55Z"/><path class="cls-1" d="M101.74,101.62l-.16-63.17C83.44,35.74,66.81,48.4,57.64,57.57l0,0c-9.17,9.16-21.83,25.79-19.12,43.94Z"/><path class="cls-1" d="M62.33,196.6,17.55,152C2.81,163,0,183.66,0,196.63v.05c0,13,2.81,33.67,17.55,44.59Z"/><path class="cls-1" d="M101.62,291.62l-63.17.16c-2.71,18.14,9.95,34.77,19.12,43.94l0,0c9.16,9.16,25.79,21.82,43.94,19.11Z"/><path class="cls-1" d="M196.6,331,152,375.81c10.91,14.75,31.62,17.55,44.59,17.55h.05c13,0,33.67-2.8,44.59-17.55Z"/><path class="cls-1" d="M291.62,291.74l.16,63.17c18.14,2.71,34.77-10,43.94-19.12l0,0c9.16-9.17,21.82-25.8,19.11-43.94Z"/><path class="cls-1" d="M331,196.77l44.77,44.55c14.75-10.91,17.55-31.62,17.55-44.58v-.06c0-13-2.8-33.67-17.55-44.59Z"/><path class="cls-1" d="M291.74,101.74l63.17-.16c2.71-18.14-10-34.77-19.12-43.94l0,0c-9.17-9.17-25.8-21.83-43.94-19.12Z"/><path class="cls-1" d="M141.69,65.33V63l1.65,1.66c21,21,33.7,40.25,25.16,63.09C146.32,117.63,141.69,95,141.69,65.33Z"/><path class="cls-1" d="M142.69,328.45,141,330.1v-2.34c0-29.65,4.63-52.29,26.81-62.4C176.4,288.19,163.66,307.48,142.69,328.45Z"/><path class="cls-1" d="M251.68,328v2.34L250,328.71c-21-21-33.7-40.25-25.16-63.08C247.05,275.73,251.68,298.38,251.68,328Z"/><path class="cls-1" d="M250.67,64.92l1.66-1.66V65.6c0,29.65-4.63,52.3-26.82,62.4C217,105.17,229.7,85.88,250.67,64.92Z"/><path class="cls-1" d="M245.84,216.43c-21.59,0-25.39-9.31-25.39-19.89s3.66-19.61,25.39-19.61c15.52,0,22.71,4.66,24.12,14h37.53c-1.55-31.18-22.15-45-61.65-45-25.05,0-41.84,5.46-51.57,16.63-8.77-10.26-21.68-15.21-35-15.21H85.88v98.75h73.35c13.38,0,26.31-5,35.09-15.28,9.74,11.21,26.51,16.69,51.52,16.69,39.64,0,60.1-14,61.65-45.29H270C268.55,211.64,261.36,216.43,245.84,216.43ZM148,215h-25.4V178.34H148c7.9,0,20.88,0,20.88,18.34S155.85,215,148,215Z"/></g></g></svg>
