<svg width="1280" height="265" viewBox="0 0 1280 265" fill="none" xmlns="http://www.w3.org/2000/svg">
<path d="M508.392 265H631.32C709.303 265 772.304 199.917 772.304 119.358H712.376C748.487 93.166 772.304 49.513 772.304 0.30423H649.375C571.393 0.30423 508.392 65.3868 508.392 145.946H568.319C532.209 172.138 508.392 215.791 508.392 265Z" fill="#363132"/>
<path d="M772.304 0.30423V123.598C772.304 201.812 837.387 265 917.946 265V204.894C944.138 241.112 987.791 265 1037 265V141.706C1037 63.4922 971.917 0.30423 891.358 0.30423V60.4098C865.166 24.1924 821.513 0.30423 772.304 0.30423Z" fill="#DD7141"/>
<path d="M508.392 265V141.706C508.392 63.4921 443.309 0.304199 362.749 0.304199V60.4098C336.558 24.1923 292.905 0.304199 243.696 0.304199V123.598C243.696 201.812 308.778 265 389.338 265V204.894C415.53 241.112 459.183 265 508.392 265Z" fill="#DD7141"/>
<path d="M243.696 0.304199H120.402C42.1879 0.304199 -21 65.3868 -21 145.946H39.1056C2.88812 172.138 -21 215.791 -21 265H102.294C180.508 265 243.696 199.917 243.696 119.358H183.59C219.808 93.166 243.696 49.513 243.696 0.304199Z" fill="#363132"/>
<path d="M1301.7 0.304199H1178.4C1100.19 0.304199 1037 65.3868 1037 145.946H1097.11C1060.89 172.138 1037 215.791 1037 265H1160.29C1238.51 265 1301.7 199.917 1301.7 119.358H1241.59C1277.81 93.166 1301.7 49.513 1301.7 0.304199Z" fill="#363132"/>
</svg>
