<svg xmlns="http://www.w3.org/2000/svg" xmlns:xlink="http://www.w3.org/1999/xlink" viewBox="0 0 291.33 150.09"><defs><style>.cls-1{fill:url(#White_Black);}.cls-2{fill:url(#White_Black-2);}.cls-3{fill:url(#White_Black-3);}.cls-4{fill:url(#White_Black-4);}.cls-5{fill:url(#White_Black-5);}.cls-6{fill:url(#White_Black-6);}.cls-7{fill:#231f20;}</style><linearGradient id="White_Black" x1="42.25" y1="25.05" x2="113.22" y2="25.05" gradientUnits="userSpaceOnUse"><stop offset="0" stop-color="#fff"/><stop offset="1" stop-color="#231f20"/></linearGradient><linearGradient id="White_Black-2" x1="71.24" y1="74.74" x2="142.22" y2="74.74" xlink:href="#White_Black"/><linearGradient id="White_Black-3" x1="0" y1="125.04" x2="70.97" y2="125.04" xlink:href="#White_Black"/><linearGradient id="White_Black-4" x1="142.11" y1="25.05" x2="213.08" y2="25.05" xlink:href="#White_Black"/><linearGradient id="White_Black-5" x1="171.1" y1="74.74" x2="242.08" y2="74.74" xlink:href="#White_Black"/><linearGradient id="White_Black-6" x1="99.86" y1="125.04" x2="170.83" y2="125.04" xlink:href="#White_Black"/></defs><title>Flag</title><g id="Layer_2" data-name="Layer 2"><g id="Layer_1-2" data-name="Layer 1"><polygon class="cls-1" points="42.25 50.1 63.12 0 113.22 0 92.36 50.1 42.25 50.1"/><polygon class="cls-2" points="71.25 99.8 92.11 49.69 142.22 49.69 121.35 99.8 71.25 99.8"/><polygon class="cls-3" points="0 150.09 20.87 99.99 70.97 99.99 50.1 150.09 0 150.09"/><polygon class="cls-4" points="142.11 50.1 162.98 0 213.08 0 192.21 50.1 142.11 50.1"/><polygon class="cls-5" points="171.1 99.8 191.97 49.69 242.08 49.69 221.21 99.8 171.1 99.8"/><polygon class="cls-6" points="99.86 150.09 120.73 99.99 170.83 99.99 149.96 150.09 99.86 150.09"/><polygon class="cls-7" points="91.51 50.1 112.38 0 162.48 0 141.61 50.1 91.51 50.1"/><polygon class="cls-7" points="120.5 99.8 141.37 49.69 191.47 49.69 170.6 99.8 120.5 99.8"/><polygon class="cls-7" points="49.25 150.09 70.12 99.99 120.23 99.99 99.36 150.09 49.25 150.09"/><polygon class="cls-7" points="191.37 50.1 212.24 0 262.34 0 241.47 50.1 191.37 50.1"/><polygon class="cls-7" points="220.36 99.8 241.23 49.69 291.33 49.69 270.46 99.8 220.36 99.8"/><polygon class="cls-7" points="149.11 150.09 169.98 99.99 220.09 99.99 199.22 150.09 149.11 150.09"/></g></g></svg>