<svg xmlns="http://www.w3.org/2000/svg" viewBox="0 0 152.87 126.01"><defs><style>.cls-1{fill:#f3ce29;}</style></defs><title>lemons</title><g id="Layer_2" data-name="Layer 2"><g id="Layer_1-2" data-name="Layer 1"><path class="cls-1" d="M96,45.27c.79-1.82,0-4.05-1.75-5.92C94,32.3,87.55,24.46,77.73,20.17c-10-4.36-20.36-3.65-25.62,1.19-2.2.17-4,1.11-4.68,2.73s-.19,3.56,1.19,5.28c0,7.15,6.56,15.22,16.57,19.58,9.82,4.28,20,3.68,25.32-.93C93.1,48.06,95.24,47.1,96,45.27Z"/><path class="cls-1" d="M152.76,112.3c.56-2.55-1-5.24-3.76-7.18-2.15-9-12.49-17.47-26.24-20.48-14-3.06-27.16.49-32.7,8.08-2.79.77-4.83,2.44-5.33,4.7s.67,4.64,2.88,6.5c1.87,9.2,12.34,17.92,26.35,21,13.74,3,26.67-.36,32.38-7.66C149.68,116.64,152.2,114.85,152.76,112.3Z"/><path class="cls-1" d="M24,119a2.59,2.59,0,0,0-1.31-2.54c-.73-3.18-4.35-6.19-9.19-7.29s-9.58.09-11.56,2.75A2.42,2.42,0,0,0,0,113.57a2.4,2.4,0,0,0,1,2.3c.63,3.25,4.3,6.36,9.23,7.48s9.41,0,11.44-2.61A2.58,2.58,0,0,0,24,119Z"/><path class="cls-1" d="M148.81,36.56c1.21-1.78.86-4.3-.66-6.64,1.14-7.53-4.14-17.17-13.7-23.7-9.74-6.65-20.87-8-27.43-3.91-2.36-.27-4.44.37-5.51,1.94s-.92,3.74.19,5.85c-1.41,7.59,3.89,17.47,13.63,24.12,9.55,6.53,20.45,7.94,27.06,4.14C145.12,38.92,147.6,38.33,148.81,36.56Z"/></g></g></svg>