<svg xmlns="http://www.w3.org/2000/svg" viewBox="0 0 657.68 284.53"><defs><style>.cls-1{fill:#F36E54;}</style></defs><title>merch</title><g id="Layer_2" data-name="Layer 2"><g id="Layer_1-2" data-name="Layer 1"><path class="cls-1" d="M0,90.64V1.56H59A138.57,138.57,0,0,1,81.54,3.23,64.36,64.36,0,0,1,98.3,8.08a56.64,56.64,0,0,1,11.5,7.07,27.34,27.34,0,0,1,7.3,8.8,43.23,43.23,0,0,1,3.65,9.64,43,43,0,0,1,1.14,10.11v3.6a48.12,48.12,0,0,1-1.44,12,34.72,34.72,0,0,1-5.68,11.55,39,39,0,0,1-11,10.18q-6.7,4.26-18.2,7a117,117,0,0,1-26.46,2.69Zm27.9-68V69.21h29q35.79,0,35.8-23V45.5q0-22.87-35.8-22.87Z"/><path class="cls-1" d="M188.32,0h5.15a125.32,125.32,0,0,1,21.07,1.62,75.06,75.06,0,0,1,15.87,4.25,45.33,45.33,0,0,1,11.19,6.46A38.53,38.53,0,0,1,249.09,20a36.43,36.43,0,0,1,4.37,8.38,39.1,39.1,0,0,1,2.15,8.14,56.9,56.9,0,0,1,.48,7.54v3.59a56.11,56.11,0,0,1-.48,7.43,40.36,40.36,0,0,1-2.15,8.2,39,39,0,0,1-4.31,8.5,36.25,36.25,0,0,1-7.49,7.78,47.16,47.16,0,0,1-11.19,6.59,73.82,73.82,0,0,1-15.87,4.37,122,122,0,0,1-21.13,1.68h-5.15a123,123,0,0,1-21.19-1.68,73.79,73.79,0,0,1-15.93-4.37A47.16,47.16,0,0,1,140,79.56a37.68,37.68,0,0,1-7.55-7.78,35.76,35.76,0,0,1-4.31-8.5,42.58,42.58,0,0,1-2.09-8.2,56.11,56.11,0,0,1-.48-7.43V44.06a55.55,55.55,0,0,1,.48-7.48,42.85,42.85,0,0,1,2.09-8.14A34.62,34.62,0,0,1,132.46,20,38.26,38.26,0,0,1,140,12.33a45.33,45.33,0,0,1,11.19-6.46,75,75,0,0,1,16-4.25A127.49,127.49,0,0,1,188.32,0Zm38.56,44.9a24.41,24.41,0,0,0-.84-6.4,18.57,18.57,0,0,0-3.24-6.23,21.22,21.22,0,0,0-6.22-5.45,36.94,36.94,0,0,0-10.48-3.77,69.77,69.77,0,0,0-15.27-1.5q-36,0-36,23.35v1.44a22.12,22.12,0,0,0,1.5,8.14,23.78,23.78,0,0,0,5.15,7.66c2.43,2.56,6.17,4.59,11.19,6.11a63.51,63.51,0,0,0,18.2,2.27A64.39,64.39,0,0,0,209,68.31q7.49-2.22,11.2-6a23.05,23.05,0,0,0,5.21-7.6,22.12,22.12,0,0,0,1.5-8.14Z"/><path class="cls-1" d="M0,187.59V98.5H39.63L70.4,153.94,101.3,98.5h38.19v89.09H112V125.92L76.87,187.59h-15L26.82,125.92v61.67Z"/><path class="cls-1" d="M151.5,98.5h93.88v20.24H179v13.17h64.78v20.35H179v14.61h67.53v20.72H151.5Z"/><path class="cls-1" d="M284.75,156v31.61H256.86V98.5H328.7q38.67,0,38.67,23.11v1.44a19.24,19.24,0,0,1-1.67,8.08,15.65,15.65,0,0,1-4.49,5.87,31,31,0,0,1-10.36,5.57A23.87,23.87,0,0,1,363,149.75,19.11,19.11,0,0,1,367.73,163v13.05q0,7.54,1.68,10.9v.6H341q-1.32-1.68-1.32-5.63v-10.3q0-8.26-4.19-12T321.15,156Zm0-37.24v17.48H327c3.75,0,6.57-.8,8.44-2.4a7.9,7.9,0,0,0,2.82-6.34v-.12a7.87,7.87,0,0,0-2.76-6.23c-1.83-1.59-4.67-2.39-8.5-2.39Z"/><path class="cls-1" d="M437.15,189.14h-4.9a105.85,105.85,0,0,1-19.52-1.67,68.48,68.48,0,0,1-14.91-4.37,47,47,0,0,1-10.72-6.53,36.57,36.57,0,0,1-7.3-7.78,42.9,42.9,0,0,1-4.37-8.5,38.69,38.69,0,0,1-2.27-8.27,52.18,52.18,0,0,1-.54-7.54V141a54.08,54.08,0,0,1,1.07-10.84,38.56,38.56,0,0,1,4.85-11.55,37.06,37.06,0,0,1,9.94-10.9q6.16-4.55,17.48-7.66A99.43,99.43,0,0,1,432.25,97h4.9a122.62,122.62,0,0,1,22.28,1.85,62.45,62.45,0,0,1,16.16,5,56.48,56.48,0,0,1,10.66,6.77,25.22,25.22,0,0,1,6.58,7.84,39.33,39.33,0,0,1,3.05,7.42,23.22,23.22,0,0,1,.9,6.23v1.32H467.21q-.48-1.44-1-2.58a17.12,17.12,0,0,0-2.69-3.65,18.9,18.9,0,0,0-5.39-4.19,38.76,38.76,0,0,0-9.34-3.05,65.38,65.38,0,0,0-14.19-1.38,59.06,59.06,0,0,0-16.34,2q-6.76,2-10.18,5.45a21,21,0,0,0-4.85,7.31,23.63,23.63,0,0,0-1.44,8.38V143a21.61,21.61,0,0,0,1.62,8.27,26.78,26.78,0,0,0,5.09,7.78c2.31,2.56,5.75,4.59,10.29,6.11a51.07,51.07,0,0,0,16.05,2.27q27.78,0,32.45-15.8H496.9V153a24.89,24.89,0,0,1-.95,6.65,42.23,42.23,0,0,1-3.18,7.72,25.93,25.93,0,0,1-6.7,8,58.6,58.6,0,0,1-10.72,6.89,60.77,60.77,0,0,1-16.1,5A120.88,120.88,0,0,1,437.15,189.14Z"/><path class="cls-1" d="M504.68,187.59V98.5h27.9V131h59.87V98.5h27.9v89.09h-27.9V152.5H532.58v35.09Z"/><path class="cls-1" d="M0,284.53V195.45H76.27q17.72,0,25.15,5.69a17.66,17.66,0,0,1,7.42,14.66v1.68a17,17,0,0,1-1.56,7.36,14.86,14.86,0,0,1-4,5.27,25.63,25.63,0,0,1-4.49,3.06,24.32,24.32,0,0,1-4.13,1.67,31.29,31.29,0,0,1,5.69,2,34,34,0,0,1,6.1,3.83,18.15,18.15,0,0,1,5.33,6.76,22.32,22.32,0,0,1,2,9.76v1.68q0,25.62-36.88,25.62Zm71.48-70.28H27.9v14.49H71.48q9.7,0,9.7-7.19v-.24Q81.18,214.25,71.48,214.25Zm2.4,33.4h-46v17.48h46q11,0,11-8.74v-.47Q84.89,247.66,73.88,247.65Z"/><path class="cls-1" d="M121.27,195.45h93.87v20.23H148.81v13.17h64.77v20.36H148.81v14.61h67.53v20.71H121.27Z"/><path class="cls-1" d="M258.72,284.53v-68H220.41V195.45H325.3v21.07H286.86v68Z"/><path class="cls-1" d="M367.62,284.53v-68H329.31V195.45H434.2v21.07H395.76v68Z"/><path class="cls-1" d="M439.78,195.45h93.87v20.23H467.32v13.17h64.77v20.36H467.32v14.61h67.53v20.71H439.78Z"/><path class="cls-1" d="M573,252.92v31.61h-27.9V195.45H617q38.68,0,38.68,23.11V220a19.14,19.14,0,0,1-1.68,8.09,15.51,15.51,0,0,1-4.49,5.86,32.58,32.58,0,0,1-5.27,3.48,33.79,33.79,0,0,1-5.09,2.09,24,24,0,0,1,12.16,7.19A19.15,19.15,0,0,1,656,260V273q0,7.54,1.67,10.89v.6H629.31Q628,282.87,628,278.9V268.61q0-8.26-4.19-12t-14.37-3.71Zm0-37.24v17.49H615.3q5.63,0,8.44-2.4a7.94,7.94,0,0,0,2.81-6.35v-.11a7.88,7.88,0,0,0-2.75-6.23q-2.76-2.4-8.5-2.4Z"/></g></g></svg>
