<svg xmlns="http://www.w3.org/2000/svg" viewBox="0 0 277 277"><defs><style>.cls-1{fill:#323735;}</style></defs><title>ok_1</title><g id="Layer_2" data-name="Layer 2"><g id="Layer_1-2" data-name="Layer 1"><path class="cls-1" d="M0,0V277H277V0ZM129.23,207.94q0,20-10.31,30.92t-28.6,10.89h-6.1q-19.17,0-29.18-10.89T45,207.94V72.33q0-42.67,39.2-42.68H90q39.21,0,39.21,42.68Zm64.52,39.78-11.33-85.08.29,85.08H146.12v-216h36.59l-.29,77.82,12.2-77.82H231.2l-17.71,97.86,18.58,118.18Z"/><path class="cls-1" d="M87.12,61.88q-4.07,0-4.06,6.39V211.13c0,3.88,1.35,5.81,4.06,5.81,2.9,0,4.36-1.93,4.36-5.81V68.27C91.48,64,90,61.88,87.12,61.88Z"/></g></g></svg>