<svg xmlns="http://www.w3.org/2000/svg" xmlns:xlink="http://www.w3.org/1999/xlink" viewBox="0 0 300 300"><defs><style>.cls-1{fill:url(#linear-gradient);}.cls-2{fill:#231f20;}.cls-3{fill:#fff;}</style><linearGradient id="linear-gradient" y1="300" x2="300" gradientUnits="userSpaceOnUse"><stop offset="0" stop-color="#bec0c2"/><stop offset="0.05" stop-color="#a7a8aa"/><stop offset="0.13" stop-color="#848385"/><stop offset="0.23" stop-color="#666466"/><stop offset="0.33" stop-color="#4d4b4c"/><stop offset="0.44" stop-color="#3a3738"/><stop offset="0.56" stop-color="#2d292b"/><stop offset="0.72" stop-color="#252122"/><stop offset="1" stop-color="#231f20"/></linearGradient></defs><title>pattern</title><g id="Layer_2" data-name="Layer 2"><g id="Layer_1-2" data-name="Layer 1"><rect class="cls-1" width="300" height="300"/><polygon class="cls-2" points="75 75 0 75 0 0 75 75"/><polygon class="cls-2" points="75.45 149.55 75.45 74.55 150.45 74.55 75.45 149.55"/><polygon class="cls-3" points="75.45 0 150.45 0 150.45 75 75.45 0"/><polygon class="cls-3" points="300 75 300 150 225 150 300 75"/><polygon class="cls-3" points="300 75 225 75 225 0 300 75"/><polygon class="cls-2" points="225 300 150 300 150 225 225 300"/><polygon class="cls-2" points="0 300 0 225 75 225 0 300"/><polygon class="cls-2" points="75 150 150 150 150 225 75 150"/><polygon class="cls-2" points="150 225 75 225 75 150 150 225"/><polygon class="cls-3" points="225 150 225 225 150 225 225 150"/><polygon class="cls-2" points="300 225 300 300 225 300 300 225"/></g></g></svg>