<svg xmlns="http://www.w3.org/2000/svg" viewBox="0 0 378.97 378.97"><defs><style>.cls-1{fill:#F36E54;}</style></defs><title>pattern-lines1</title><g id="Layer_2" data-name="Layer 2"><g id="Layer_1-2" data-name="Layer 1"><polygon class="cls-1" points="210.25 2.36 207.89 0 137.18 70.71 138.12 71.65 69.7 140.08 68.75 139.14 0 207.89 2.36 210.25 210.25 2.36"/><polygon class="cls-1" points="219.13 11.24 216.58 8.69 145.87 79.4 146.89 80.42 78.46 148.84 77.44 147.83 8.69 216.58 11.24 219.13 219.13 11.24"/><polygon class="cls-1" points="228.01 20.12 225.27 17.38 154.56 88.09 155.65 89.19 87.23 157.61 86.13 156.52 17.38 225.27 20.12 228.01 228.01 20.12"/><polygon class="cls-1" points="236.89 29 233.96 26.07 163.25 96.78 164.42 97.95 96 166.38 94.82 165.21 26.07 233.96 29 236.89 236.89 29"/><polygon class="cls-1" points="245.77 37.88 242.65 34.76 171.94 105.47 173.19 106.72 104.76 175.14 103.52 173.9 34.76 242.65 37.88 245.77 245.77 37.88"/><polygon class="cls-1" points="254.65 46.76 251.34 43.45 180.63 114.16 181.95 115.48 113.53 183.91 112.2 182.59 43.45 251.34 46.76 254.65 254.65 46.76"/><polygon class="cls-1" points="263.53 55.64 260.03 52.14 189.32 122.85 190.72 124.25 122.29 192.68 120.89 191.28 52.14 260.03 55.64 263.53 263.53 55.64"/><polygon class="cls-1" points="272.41 64.52 268.72 60.83 198.01 131.54 199.49 133.02 131.06 201.44 129.59 199.97 60.83 268.72 64.52 272.41 272.41 64.52"/><polygon class="cls-1" points="281.29 73.4 277.41 69.52 206.7 140.23 208.25 141.78 139.83 210.21 138.28 208.66 69.52 277.41 73.4 281.29 281.29 73.4"/><polygon class="cls-1" points="290.17 82.28 286.1 78.21 215.39 148.92 217.02 150.55 148.59 218.97 146.97 217.35 78.21 286.1 82.28 290.17 290.17 82.28"/><polygon class="cls-1" points="299.05 91.16 294.79 86.9 224.08 157.61 225.78 159.31 157.36 227.74 155.66 226.04 86.9 294.79 91.16 299.05 299.05 91.16"/><polygon class="cls-1" points="307.93 100.04 303.48 95.59 232.77 166.3 234.55 168.08 166.12 236.51 164.35 234.73 95.59 303.48 100.04 307.93 307.93 100.04"/><polygon class="cls-1" points="316.81 108.92 312.17 104.28 241.46 174.99 243.32 176.85 174.89 245.27 173.04 243.42 104.28 312.17 108.92 316.81 316.81 108.92"/><polygon class="cls-1" points="325.69 117.8 320.86 112.97 250.15 183.68 252.08 185.61 183.66 254.04 181.73 252.11 112.97 320.86 117.8 325.69 325.69 117.8"/><polygon class="cls-1" points="334.57 126.68 329.55 121.66 258.84 192.37 260.85 194.38 192.42 262.81 190.42 260.8 121.66 329.55 126.68 334.57 334.57 126.68"/><polygon class="cls-1" points="343.45 135.56 338.24 130.35 267.53 201.06 269.61 203.15 201.19 271.57 199.11 269.49 130.35 338.24 135.56 343.45 343.45 135.56"/><polygon class="cls-1" points="352.33 144.44 346.93 139.04 276.22 209.75 278.38 211.91 209.96 280.34 207.8 278.18 139.04 346.93 144.44 352.33 352.33 144.44"/><polygon class="cls-1" points="361.21 153.32 355.62 147.73 284.91 218.44 287.15 220.68 218.72 289.1 216.49 286.87 147.73 355.62 153.32 361.21 361.21 153.32"/><polygon class="cls-1" points="370.09 162.2 364.31 156.42 293.6 227.13 295.91 229.44 227.49 297.87 225.18 295.56 156.42 364.31 162.2 370.09 370.09 162.2"/><polygon class="cls-1" points="378.97 171.08 373 165.11 302.29 235.82 304.68 238.21 236.25 306.64 233.87 304.25 165.11 373 171.08 378.97 378.97 171.08"/></g></g></svg>
