<svg xmlns="http://www.w3.org/2000/svg" viewBox="0 0 451.11 260.69"><defs><style>.cls-1{fill:#F36E54;}.cls-2{fill:#262626;}</style></defs><title>Report_1</title><g id="Layer_2" data-name="Layer 2"><g id="Layer_1-2" data-name="Layer 1"><polygon points="408.7 155.79 254.02 50.89 264.22 99.7 214.18 99.7 190.83 50.89 0 50.89 50.18 155.79 43.81 260.69 234.64 260.69 237.08 220.56 289.46 220.56 297.84 260.69 408.7 155.79"/><polygon points="408.88 155.57 254.21 50.67 264.4 99.48 214.36 99.48 191.01 50.67 0.18 50.67 50.36 155.57 44 260.48 234.82 260.48 237.26 220.34 289.64 220.34 298.02 260.48 408.88 155.57"/><polygon points="409.06 155.35 254.39 50.45 264.58 99.27 214.54 99.27 191.19 50.45 0.36 50.45 50.54 155.35 44.18 260.26 235.01 260.26 237.44 220.13 289.82 220.13 298.2 260.26 409.06 155.35"/><polygon points="409.24 155.14 254.57 50.23 264.76 99.05 214.72 99.05 191.37 50.23 0.54 50.23 50.72 155.14 44.36 260.04 235.19 260.04 237.62 219.91 290 219.91 298.38 260.04 409.24 155.14"/><polygon points="409.42 154.92 254.75 50.02 264.94 98.83 214.91 98.83 191.56 50.02 0.72 50.02 50.91 154.92 44.54 259.82 235.37 259.82 237.8 219.69 290.18 219.69 298.56 259.82 409.42 154.92"/><polygon points="409.61 154.7 254.93 49.8 265.12 98.62 215.09 98.62 191.74 49.8 0.91 49.8 51.09 154.7 44.72 259.61 235.55 259.61 237.99 219.47 290.36 219.47 298.75 259.61 409.61 154.7"/><polygon points="409.79 154.49 255.11 49.58 265.31 98.4 215.27 98.4 191.92 49.58 1.09 49.58 51.27 154.49 44.9 259.39 235.73 259.39 238.17 219.26 290.55 219.26 298.93 259.39 409.79 154.49"/><polygon points="409.97 154.27 255.29 49.37 265.49 98.18 215.45 98.18 192.1 49.37 1.27 49.37 51.45 154.27 45.08 259.17 235.91 259.17 238.35 219.04 290.73 219.04 299.11 259.17 409.97 154.27"/><polygon points="410.15 154.05 255.47 49.15 265.67 97.96 215.63 97.96 192.28 49.15 1.45 49.15 51.63 154.05 45.26 258.95 236.09 258.95 238.53 218.82 290.91 218.82 299.29 258.95 410.15 154.05"/><polygon points="410.33 153.83 255.66 48.93 265.85 97.75 215.81 97.75 192.46 48.93 1.63 48.93 51.81 153.83 45.45 258.74 236.28 258.74 238.71 218.6 291.09 218.6 299.47 258.74 410.33 153.83"/><polygon points="410.51 153.62 255.84 48.71 266.03 97.53 215.99 97.53 192.64 48.71 1.81 48.71 51.99 153.62 45.63 258.52 236.46 258.52 238.89 218.39 291.27 218.39 299.65 258.52 410.51 153.62"/><polygon points="410.69 153.4 256.02 48.5 266.21 97.31 216.17 97.31 192.82 48.5 1.99 48.5 52.17 153.4 45.81 258.3 236.64 258.3 239.07 218.17 291.45 218.17 299.83 258.3 410.69 153.4"/><polygon points="410.87 153.18 256.2 48.28 266.39 97.09 216.35 97.09 193 48.28 2.17 48.28 52.35 153.18 45.99 258.08 236.82 258.08 239.25 217.95 291.63 217.95 300.01 258.08 410.87 153.18"/><polygon points="411.06 152.96 256.38 48.06 266.57 96.88 216.54 96.88 193.19 48.06 2.36 48.06 52.54 152.96 46.17 257.87 237 257.87 239.44 217.74 291.81 217.74 300.19 257.87 411.06 152.96"/><polygon points="411.24 152.75 256.56 47.84 266.76 96.66 216.72 96.66 193.37 47.84 2.54 47.84 52.72 152.75 46.35 257.65 237.18 257.65 239.62 217.52 292 217.52 300.38 257.65 411.24 152.75"/><polygon points="411.42 152.53 256.74 47.63 266.94 96.44 216.9 96.44 193.55 47.63 2.72 47.63 52.9 152.53 46.53 257.43 237.36 257.43 239.8 217.3 292.18 217.3 300.56 257.43 411.42 152.53"/><polygon points="411.6 152.31 256.92 47.41 267.12 96.22 217.08 96.22 193.73 47.41 2.9 47.41 53.08 152.31 46.71 257.21 237.54 257.21 239.98 217.08 292.36 217.08 300.74 257.21 411.6 152.31"/><polygon points="411.78 152.09 257.11 47.19 267.3 96.01 217.26 96.01 193.91 47.19 3.08 47.19 53.26 152.09 46.9 257 237.72 257 240.16 216.87 292.54 216.87 300.92 257 411.78 152.09"/><polygon points="411.96 151.88 257.29 46.97 267.48 95.79 217.44 95.79 194.09 46.97 3.26 46.97 53.44 151.88 47.08 256.78 237.91 256.78 240.34 216.65 292.72 216.65 301.1 256.78 411.96 151.88"/><polygon points="412.14 151.66 257.47 46.76 267.66 95.57 217.62 95.57 194.27 46.76 3.44 46.76 53.62 151.66 47.26 256.56 238.09 256.56 240.52 216.43 292.9 216.43 301.28 256.56 412.14 151.66"/><polygon points="412.32 151.44 257.65 46.54 267.84 95.35 217.81 95.35 194.45 46.54 3.63 46.54 53.8 151.44 47.44 256.34 238.27 256.34 240.7 216.21 293.08 216.21 301.46 256.34 412.32 151.44"/><polygon points="412.5 151.22 257.83 46.32 268.02 95.14 217.99 95.14 194.64 46.32 3.81 46.32 53.99 151.22 47.62 256.13 238.45 256.13 240.88 216 293.26 216 301.64 256.13 412.5 151.22"/><polygon points="412.69 151.01 258.01 46.1 268.2 94.92 218.17 94.92 194.82 46.1 3.99 46.1 54.17 151.01 47.8 255.91 238.63 255.91 241.07 215.78 293.44 215.78 301.83 255.91 412.69 151.01"/><polygon points="412.87 150.79 258.19 45.89 268.39 94.7 218.35 94.7 195 45.89 4.17 45.89 54.35 150.79 47.98 255.69 238.81 255.69 241.25 215.56 293.63 215.56 302.01 255.69 412.87 150.79"/><polygon points="413.05 150.57 258.37 45.67 268.57 94.48 218.53 94.48 195.18 45.67 4.35 45.67 54.53 150.57 48.16 255.47 238.99 255.47 241.43 215.34 293.81 215.34 302.19 255.47 413.05 150.57"/><polygon points="413.23 150.35 258.56 45.45 268.75 94.27 218.71 94.27 195.36 45.45 4.53 45.45 54.71 150.35 48.34 255.25 239.18 255.25 241.61 215.13 293.99 215.13 302.37 255.25 413.23 150.35"/><polygon points="413.41 150.14 258.74 45.23 268.93 94.05 218.89 94.05 195.54 45.23 4.71 45.23 54.89 150.14 48.53 255.04 239.36 255.04 241.79 214.91 294.17 214.91 302.55 255.04 413.41 150.14"/><polygon points="413.59 149.92 258.92 45.02 269.11 93.83 219.07 93.83 195.72 45.02 4.89 45.02 55.07 149.92 48.71 254.82 239.54 254.82 241.97 214.69 294.35 214.69 302.73 254.82 413.59 149.92"/><polygon points="413.77 149.7 259.1 44.8 269.29 93.61 219.25 93.61 195.9 44.8 5.08 44.8 55.25 149.7 48.89 254.6 239.72 254.6 242.15 214.47 294.53 214.47 302.91 254.6 413.77 149.7"/><polygon points="413.95 149.48 259.28 44.58 269.47 93.4 219.44 93.4 196.09 44.58 5.26 44.58 55.44 149.48 49.07 254.38 239.9 254.38 242.34 214.25 294.71 214.25 303.09 254.38 413.95 149.48"/><polygon points="414.14 149.27 259.46 44.36 269.65 93.18 219.62 93.18 196.27 44.36 5.44 44.36 55.62 149.27 49.25 254.17 240.08 254.17 242.52 214.04 294.89 214.04 303.28 254.17 414.14 149.27"/><polygon points="414.32 149.05 259.64 44.15 269.84 92.96 219.8 92.96 196.45 44.15 5.62 44.15 55.8 149.05 49.43 253.95 240.26 253.95 242.7 213.82 295.08 213.82 303.46 253.95 414.32 149.05"/><polygon points="414.5 148.83 259.82 43.93 270.02 92.74 219.98 92.74 196.63 43.93 5.8 43.93 55.98 148.83 49.61 253.73 240.44 253.73 242.88 213.6 295.26 213.6 303.64 253.73 414.5 148.83"/><polygon points="414.68 148.61 260 43.71 270.2 92.53 220.16 92.53 196.81 43.71 5.98 43.71 56.16 148.61 49.8 253.52 240.63 253.52 243.06 213.38 295.44 213.38 303.82 253.52 414.68 148.61"/><polygon points="414.86 148.4 260.19 43.49 270.38 92.31 220.34 92.31 196.99 43.49 6.16 43.49 56.34 148.4 49.98 253.3 240.81 253.3 243.24 213.17 295.62 213.17 304 253.3 414.86 148.4"/><polygon points="415.04 148.18 260.37 43.28 270.56 92.09 220.52 92.09 197.17 43.28 6.34 43.28 56.52 148.18 50.16 253.08 240.99 253.08 243.42 212.95 295.8 212.95 304.18 253.08 415.04 148.18"/><polygon points="415.22 147.96 260.55 43.06 270.74 91.87 220.71 91.87 197.35 43.06 6.52 43.06 56.7 147.96 50.34 252.86 241.17 252.86 243.6 212.73 295.98 212.73 304.36 252.86 415.22 147.96"/><polygon points="415.4 147.74 260.73 42.84 270.92 91.66 220.89 91.66 197.53 42.84 6.71 42.84 56.88 147.74 50.52 252.65 241.35 252.65 243.78 212.51 296.16 212.51 304.54 252.65 415.4 147.74"/><polygon points="415.59 147.53 260.91 42.62 271.11 91.44 221.07 91.44 197.72 42.62 6.89 42.62 57.07 147.53 50.7 252.43 241.53 252.43 243.97 212.3 296.35 212.3 304.73 252.43 415.59 147.53"/><polygon points="415.77 147.31 261.09 42.41 271.29 91.22 221.25 91.22 197.9 42.41 7.07 42.41 57.25 147.31 50.88 252.21 241.71 252.21 244.15 212.08 296.53 212.08 304.91 252.21 415.77 147.31"/><polygon points="415.95 147.09 261.27 42.19 271.47 91 221.43 91 198.08 42.19 7.25 42.19 57.43 147.09 51.06 251.99 241.89 251.99 244.33 211.86 296.71 211.86 305.09 251.99 415.95 147.09"/><polygon points="416.13 146.87 261.45 41.97 271.65 90.79 221.61 90.79 198.26 41.97 7.43 41.97 57.61 146.87 51.24 251.78 242.07 251.78 244.51 211.65 296.89 211.65 305.27 251.78 416.13 146.87"/><polygon points="416.31 146.66 261.64 41.75 271.83 90.57 221.79 90.57 198.44 41.75 7.61 41.75 57.79 146.66 51.43 251.56 242.26 251.56 244.69 211.43 297.07 211.43 305.45 251.56 416.31 146.66"/><polygon points="416.49 146.44 261.82 41.54 272.01 90.35 221.97 90.35 198.62 41.54 7.79 41.54 57.97 146.44 51.61 251.34 242.44 251.34 244.87 211.21 297.25 211.21 305.63 251.34 416.49 146.44"/><polygon points="416.67 146.22 262 41.32 272.19 90.13 222.15 90.13 198.8 41.32 7.97 41.32 58.15 146.22 51.79 251.12 242.62 251.12 245.05 210.99 297.43 210.99 305.81 251.12 416.67 146.22"/><polygon points="416.86 146 262.18 41.1 272.37 89.92 222.34 89.92 198.99 41.1 8.16 41.1 58.34 146 51.97 250.91 242.8 250.91 245.24 210.78 297.61 210.78 305.99 250.91 416.86 146"/><polygon points="417.04 145.79 262.36 40.88 272.56 89.7 222.52 89.7 199.17 40.88 8.34 40.88 58.52 145.79 52.15 250.69 242.98 250.69 245.42 210.56 297.8 210.56 306.18 250.69 417.04 145.79"/><polygon points="417.22 145.57 262.54 40.67 272.74 89.48 222.7 89.48 199.35 40.67 8.52 40.67 58.7 145.57 52.33 250.47 243.16 250.47 245.6 210.34 297.98 210.34 306.36 250.47 417.22 145.57"/><polygon points="417.4 145.35 262.72 40.45 272.92 89.26 222.88 89.26 199.53 40.45 8.7 40.45 58.88 145.35 52.51 250.25 243.34 250.25 245.78 210.12 298.16 210.12 306.54 250.25 417.4 145.35"/><polygon points="417.58 145.13 262.9 40.23 273.1 89.05 223.06 89.05 199.71 40.23 8.88 40.23 59.06 145.13 52.7 250.04 243.53 250.04 245.96 209.91 298.34 209.91 306.72 250.04 417.58 145.13"/><polygon points="417.76 144.92 263.09 40.01 273.28 88.83 223.24 88.83 199.89 40.01 9.06 40.01 59.24 144.92 52.88 249.82 243.71 249.82 246.14 209.69 298.52 209.69 306.9 249.82 417.76 144.92"/><polygon points="417.94 144.7 263.27 39.8 273.46 88.61 223.42 88.61 200.07 39.8 9.24 39.8 59.42 144.7 53.06 249.6 243.89 249.6 246.32 209.47 298.7 209.47 307.08 249.6 417.94 144.7"/><polygon points="418.12 144.48 263.45 39.58 273.64 88.39 223.6 88.39 200.25 39.58 9.42 39.58 59.6 144.48 53.24 249.38 244.07 249.38 246.5 209.25 298.88 209.25 307.26 249.38 418.12 144.48"/><polygon points="418.31 144.26 263.63 39.36 273.82 88.18 223.79 88.18 200.44 39.36 9.61 39.36 59.78 144.26 53.42 249.17 244.25 249.17 246.68 209.04 299.06 209.04 307.44 249.17 418.31 144.26"/><polygon points="418.49 144.05 263.81 39.15 274 87.96 223.97 87.96 200.62 39.15 9.79 39.15 59.97 144.05 53.6 248.95 244.43 248.95 246.87 208.82 299.24 208.82 307.63 248.95 418.49 144.05"/><polygon points="418.67 143.83 263.99 38.93 274.19 87.74 224.15 87.74 200.8 38.93 9.97 38.93 60.15 143.83 53.78 248.73 244.61 248.73 247.05 208.6 299.43 208.6 307.81 248.73 418.67 143.83"/><polygon points="418.85 143.61 264.17 38.71 274.37 87.53 224.33 87.53 200.98 38.71 10.15 38.71 60.33 143.61 53.96 248.51 244.79 248.51 247.23 208.38 299.61 208.38 307.99 248.51 418.85 143.61"/><polygon points="419.03 143.39 264.35 38.49 274.55 87.31 224.51 87.31 201.16 38.49 10.33 38.49 60.51 143.39 54.15 248.3 244.97 248.3 247.41 208.17 299.79 208.17 308.17 248.3 419.03 143.39"/><polygon points="419.21 143.18 264.54 38.27 274.73 87.09 224.69 87.09 201.34 38.27 10.51 38.27 60.69 143.18 54.33 248.08 245.16 248.08 247.59 207.95 299.97 207.95 308.35 248.08 419.21 143.18"/><polygon points="419.39 142.96 264.72 38.06 274.91 86.87 224.87 86.87 201.52 38.06 10.69 38.06 60.87 142.96 54.51 247.86 245.34 247.86 247.77 207.73 300.15 207.73 308.53 247.86 419.39 142.96"/><polygon points="419.57 142.74 264.9 37.84 275.09 86.66 225.05 86.66 201.7 37.84 10.87 37.84 61.05 142.74 54.69 247.64 245.52 247.64 247.95 207.51 300.33 207.51 308.71 247.64 419.57 142.74"/><polygon points="419.75 142.52 265.08 37.62 275.27 86.44 225.24 86.44 201.88 37.62 11.05 37.62 61.23 142.52 54.87 247.43 245.7 247.43 248.13 207.3 300.51 207.3 308.89 247.43 419.75 142.52"/><polygon points="419.94 142.31 265.26 37.41 275.45 86.22 225.42 86.22 202.07 37.41 11.24 37.41 61.42 142.31 55.05 247.21 245.88 247.21 248.32 207.08 300.69 207.08 309.07 247.21 419.94 142.31"/><polygon points="420.12 142.09 265.44 37.19 275.64 86 225.6 86 202.25 37.19 11.42 37.19 61.6 142.09 55.23 246.99 246.06 246.99 248.5 206.86 300.88 206.86 309.26 246.99 420.12 142.09"/><polygon points="420.3 141.87 265.62 36.97 275.82 85.78 225.78 85.78 202.43 36.97 11.6 36.97 61.78 141.87 55.41 246.77 246.24 246.77 248.68 206.64 301.06 206.64 309.44 246.77 420.3 141.87"/><polygon points="420.48 141.65 265.8 36.75 276 85.57 225.96 85.57 202.61 36.75 11.78 36.75 61.96 141.65 55.59 246.56 246.42 246.56 248.86 206.43 301.24 206.43 309.62 246.56 420.48 141.65"/><polygon points="420.66 141.44 265.99 36.53 276.18 85.35 226.14 85.35 202.79 36.53 11.96 36.53 62.14 141.44 55.78 246.34 246.61 246.34 249.04 206.21 301.42 206.21 309.8 246.34 420.66 141.44"/><polygon points="420.84 141.22 266.17 36.32 276.36 85.13 226.32 85.13 202.97 36.32 12.14 36.32 62.32 141.22 55.96 246.12 246.79 246.12 249.22 205.99 301.6 205.99 309.98 246.12 420.84 141.22"/><polygon points="421.02 141 266.35 36.1 276.54 84.92 226.5 84.92 203.15 36.1 12.32 36.1 62.5 141 56.14 245.9 246.97 245.9 249.4 205.77 301.78 205.77 310.16 245.9 421.02 141"/><polygon points="421.2 140.78 266.53 35.88 276.72 84.7 226.69 84.7 203.34 35.88 12.51 35.88 62.69 140.78 56.32 245.69 247.15 245.69 249.58 205.56 301.96 205.56 310.34 245.69 421.2 140.78"/><polygon points="421.39 140.57 266.71 35.66 276.9 84.48 226.87 84.48 203.52 35.66 12.69 35.66 62.87 140.57 56.5 245.47 247.33 245.47 249.76 205.34 302.14 205.34 310.52 245.47 421.39 140.57"/><polygon points="421.57 140.35 266.89 35.45 277.09 84.26 227.05 84.26 203.7 35.45 12.87 35.45 63.05 140.35 56.68 245.25 247.51 245.25 249.95 205.12 302.32 205.12 310.71 245.25 421.57 140.35"/><polygon points="421.75 140.13 267.07 35.23 277.27 84.05 227.23 84.05 203.88 35.23 13.05 35.23 63.23 140.13 56.86 245.03 247.69 245.03 250.13 204.9 302.51 204.9 310.89 245.03 421.75 140.13"/><polygon points="421.93 139.91 267.25 35.01 277.45 83.83 227.41 83.83 204.06 35.01 13.23 35.01 63.41 139.91 57.05 244.82 247.87 244.82 250.31 204.69 302.69 204.69 311.07 244.82 421.93 139.91"/><polygon points="422.11 139.7 267.44 34.8 277.63 83.61 227.59 83.61 204.24 34.8 13.41 34.8 63.59 139.7 57.23 244.6 248.06 244.6 250.49 204.47 302.87 204.47 311.25 244.6 422.11 139.7"/><polygon points="422.29 139.48 267.62 34.58 277.81 83.39 227.77 83.39 204.42 34.58 13.59 34.58 63.77 139.48 57.41 244.38 248.24 244.38 250.67 204.25 303.05 204.25 311.43 244.38 422.29 139.48"/><polygon points="422.47 139.26 267.8 34.36 277.99 83.17 227.95 83.17 204.6 34.36 13.77 34.36 63.95 139.26 57.59 244.16 248.42 244.16 250.85 204.03 303.23 204.03 311.61 244.16 422.47 139.26"/><polygon points="422.65 139.04 267.98 34.14 278.17 82.96 228.13 82.96 204.78 34.14 13.96 34.14 64.14 139.04 57.77 243.95 248.6 243.95 251.03 203.82 303.41 203.82 311.79 243.95 422.65 139.04"/><polygon points="422.84 138.83 268.16 33.92 278.36 82.74 228.32 82.74 204.97 33.92 14.14 33.92 64.32 138.83 57.95 243.73 248.78 243.73 251.22 203.6 303.59 203.6 311.98 243.73 422.84 138.83"/><polygon points="423.02 138.61 268.34 33.71 278.54 82.52 228.5 82.52 205.15 33.71 14.32 33.71 64.5 138.61 58.13 243.51 248.96 243.51 251.4 203.38 303.77 203.38 312.16 243.51 423.02 138.61"/><polygon points="423.2 138.39 268.52 33.49 278.72 82.31 228.68 82.31 205.33 33.49 14.5 33.49 64.68 138.39 58.31 243.29 249.14 243.29 251.58 203.16 303.96 203.16 312.34 243.29 423.2 138.39"/><polygon points="423.38 138.18 268.7 33.27 278.9 82.09 228.86 82.09 205.51 33.27 14.68 33.27 64.86 138.18 58.49 243.08 249.32 243.08 251.76 202.95 304.14 202.95 312.52 243.08 423.38 138.18"/><polygon points="423.56 137.96 268.88 33.05 279.08 81.87 229.04 81.87 205.69 33.05 14.86 33.05 65.04 137.96 58.68 242.86 249.5 242.86 251.94 202.73 304.32 202.73 312.7 242.86 423.56 137.96"/><polygon points="423.74 137.74 269.07 32.84 279.26 81.65 229.22 81.65 205.87 32.84 15.04 32.84 65.22 137.74 58.86 242.64 249.69 242.64 252.12 202.51 304.5 202.51 312.88 242.64 423.74 137.74"/><polygon points="423.92 137.52 269.25 32.62 279.44 81.44 229.4 81.44 206.05 32.62 15.22 32.62 65.4 137.52 59.04 242.43 249.87 242.43 252.3 202.29 304.68 202.29 313.06 242.43 423.92 137.52"/><polygon points="424.1 137.31 269.43 32.4 279.62 81.22 229.59 81.22 206.23 32.4 15.4 32.4 65.58 137.31 59.22 242.21 250.05 242.21 252.48 202.08 304.86 202.08 313.24 242.21 424.1 137.31"/><polygon points="424.29 137.09 269.61 32.19 279.8 81 229.77 81 206.42 32.19 15.59 32.19 65.77 137.09 59.4 241.99 250.23 241.99 252.66 201.86 305.04 201.86 313.43 241.99 424.29 137.09"/><polygon points="424.47 136.87 269.79 31.97 279.99 80.78 229.95 80.78 206.6 31.97 15.77 31.97 65.95 136.87 59.58 241.77 250.41 241.77 252.85 201.64 305.23 201.64 313.61 241.77 424.47 136.87"/><polygon points="424.65 136.65 269.97 31.75 280.17 80.57 230.13 80.57 206.78 31.75 15.95 31.75 66.13 136.65 59.76 241.56 250.59 241.56 253.03 201.42 305.41 201.42 313.79 241.56 424.65 136.65"/><polygon points="424.83 136.44 270.15 31.53 280.35 80.35 230.31 80.35 206.96 31.53 16.13 31.53 66.31 136.44 59.94 241.34 250.77 241.34 253.21 201.21 305.59 201.21 313.97 241.34 424.83 136.44"/><polygon points="425.01 136.22 270.33 31.32 280.53 80.13 230.49 80.13 207.14 31.32 16.31 31.32 66.49 136.22 60.13 241.12 250.96 241.12 253.39 200.99 305.77 200.99 314.15 241.12 425.01 136.22"/><polygon points="425.19 136 270.52 31.1 280.71 79.91 230.67 79.91 207.32 31.1 16.49 31.1 66.67 136 60.31 240.9 251.14 240.9 253.57 200.77 305.95 200.77 314.33 240.9 425.19 136"/><polygon points="425.37 135.78 270.7 30.88 280.89 79.7 230.85 79.7 207.5 30.88 16.67 30.88 66.85 135.78 60.49 240.69 251.32 240.69 253.75 200.55 306.13 200.55 314.51 240.69 425.37 135.78"/><polygon points="425.55 135.56 270.88 30.66 281.07 79.48 231.03 79.48 207.68 30.66 16.86 30.66 67.03 135.56 60.67 240.47 251.5 240.47 253.93 200.34 306.31 200.34 314.69 240.47 425.55 135.56"/><polygon points="425.74 135.35 271.06 30.45 281.25 79.26 231.22 79.26 207.87 30.45 17.04 30.45 67.22 135.35 60.85 240.25 251.68 240.25 254.12 200.12 306.49 200.12 314.87 240.25 425.74 135.35"/><polygon points="425.92 135.13 271.24 30.23 281.44 79.04 231.4 79.04 208.05 30.23 17.22 30.23 67.4 135.13 61.03 240.03 251.86 240.03 254.3 199.9 306.68 199.9 315.06 240.03 425.92 135.13"/><polygon points="426.1 134.91 271.42 30.01 281.62 78.83 231.58 78.83 208.23 30.01 17.4 30.01 67.58 134.91 61.21 239.81 252.04 239.81 254.48 199.69 306.86 199.69 315.24 239.81 426.1 134.91"/><polygon points="426.28 134.69 271.6 29.79 281.8 78.61 231.76 78.61 208.41 29.79 17.58 29.79 67.76 134.69 61.39 239.6 252.22 239.6 254.66 199.47 307.04 199.47 315.42 239.6 426.28 134.69"/><polygon points="426.46 134.48 271.79 29.58 281.98 78.39 231.94 78.39 208.59 29.58 17.76 29.58 67.94 134.48 61.58 239.38 252.41 239.38 254.84 199.25 307.22 199.25 315.6 239.38 426.46 134.48"/><polygon points="426.64 134.26 271.97 29.36 282.16 78.17 232.12 78.17 208.77 29.36 17.94 29.36 68.12 134.26 61.76 239.16 252.59 239.16 255.02 199.03 307.4 199.03 315.78 239.16 426.64 134.26"/><polygon points="426.82 134.04 272.15 29.14 282.34 77.96 232.3 77.96 208.95 29.14 18.12 29.14 68.3 134.04 61.94 238.94 252.77 238.94 255.2 198.81 307.58 198.81 315.96 238.94 426.82 134.04"/><polygon points="427 133.82 272.33 28.92 282.52 77.74 232.49 77.74 209.13 28.92 18.3 28.92 68.48 133.82 62.12 238.73 252.95 238.73 255.38 198.6 307.76 198.6 316.14 238.73 427 133.82"/><polygon points="427.19 133.61 272.51 28.71 282.7 77.52 232.67 77.52 209.31 28.71 18.49 28.71 68.67 133.61 62.3 238.51 253.13 238.51 255.56 198.38 307.94 198.38 316.32 238.51 427.19 133.61"/><polygon points="427.37 133.39 272.69 28.49 282.88 77.3 232.85 77.3 209.5 28.49 18.67 28.49 68.85 133.39 62.48 238.29 253.31 238.29 255.75 198.16 308.13 198.16 316.51 238.29 427.37 133.39"/><polygon points="427.55 133.17 272.87 28.27 283.07 77.09 233.03 77.09 209.68 28.27 18.85 28.27 69.03 133.17 62.66 238.07 253.49 238.07 255.93 197.94 308.31 197.94 316.69 238.07 427.55 133.17"/><polygon points="427.73 132.96 273.05 28.05 283.25 76.87 233.21 76.87 209.86 28.05 19.03 28.05 69.21 132.96 62.84 237.86 253.67 237.86 256.11 197.73 308.49 197.73 316.87 237.86 427.73 132.96"/><polygon points="427.91 132.74 273.24 27.84 283.43 76.65 233.39 76.65 210.04 27.84 19.21 27.84 69.39 132.74 63.02 237.64 253.85 237.64 256.29 197.51 308.67 197.51 317.05 237.64 427.91 132.74"/><polygon points="428.09 132.52 273.42 27.62 283.61 76.43 233.57 76.43 210.22 27.62 19.39 27.62 69.57 132.52 63.21 237.42 254.04 237.42 256.47 197.29 308.85 197.29 317.23 237.42 428.09 132.52"/><polygon points="428.27 132.3 273.6 27.4 283.79 76.22 233.75 76.22 210.4 27.4 19.57 27.4 69.75 132.3 63.39 237.21 254.22 237.21 256.65 197.07 309.03 197.07 317.41 237.21 428.27 132.3"/><polygon points="428.45 132.09 273.78 27.18 283.97 76 233.94 76 210.58 27.18 19.75 27.18 69.93 132.09 63.57 236.99 254.4 236.99 256.83 196.86 309.21 196.86 317.59 236.99 428.45 132.09"/><polygon points="428.63 131.87 273.96 26.97 284.15 75.78 234.12 75.78 210.76 26.97 19.94 26.97 70.11 131.87 63.75 236.77 254.58 236.77 257.01 196.64 309.39 196.64 317.77 236.77 428.63 131.87"/><polygon points="428.82 131.65 274.14 26.75 284.33 75.56 234.3 75.56 210.95 26.75 20.12 26.75 70.3 131.65 63.93 236.55 254.76 236.55 257.2 196.42 309.57 196.42 317.95 236.55 428.82 131.65"/><polygon points="429 131.43 274.32 26.53 284.52 75.35 234.48 75.35 211.13 26.53 20.3 26.53 70.48 131.43 64.11 236.34 254.94 236.34 257.38 196.21 309.76 196.21 318.14 236.34 429 131.43"/><polygon points="429.18 131.22 274.5 26.31 284.7 75.13 234.66 75.13 211.31 26.31 20.48 26.31 70.66 131.22 64.29 236.12 255.12 236.12 257.56 195.99 309.94 195.99 318.32 236.12 429.18 131.22"/><polygon points="429.36 131 274.69 26.1 284.88 74.91 234.84 74.91 211.49 26.1 20.66 26.1 70.84 131 64.47 235.9 255.31 235.9 257.74 195.77 310.12 195.77 318.5 235.9 429.36 131"/><polygon points="429.54 130.78 274.87 25.88 285.06 74.69 235.02 74.69 211.67 25.88 20.84 25.88 71.02 130.78 64.66 235.68 255.49 235.68 257.92 195.55 310.3 195.55 318.68 235.68 429.54 130.78"/><polygon points="429.72 130.56 275.05 25.66 285.24 74.48 235.2 74.48 211.85 25.66 21.02 25.66 71.2 130.56 64.84 235.47 255.67 235.47 258.1 195.34 310.48 195.34 318.86 235.47 429.72 130.56"/><polygon points="429.9 130.35 275.23 25.44 285.42 74.26 235.38 74.26 212.03 25.44 21.2 25.44 71.38 130.35 65.02 235.25 255.85 235.25 258.28 195.12 310.66 195.12 319.04 235.25 429.9 130.35"/><polygon points="430.08 130.13 275.41 25.23 285.6 74.04 235.57 74.04 212.22 25.23 21.39 25.23 71.56 130.13 65.2 235.03 256.03 235.03 258.46 194.9 310.84 194.9 319.22 235.03 430.08 130.13"/><polygon points="430.27 129.91 275.59 25.01 285.79 73.82 235.75 73.82 212.4 25.01 21.57 25.01 71.75 129.91 65.38 234.81 256.21 234.81 258.65 194.68 311.02 194.68 319.4 234.81 430.27 129.91"/><polygon points="430.45 129.69 275.77 24.79 285.97 73.61 235.93 73.61 212.58 24.79 21.75 24.79 71.93 129.69 65.56 234.6 256.39 234.6 258.83 194.47 311.21 194.47 319.59 234.6 430.45 129.69"/><polygon points="430.63 129.48 275.95 24.57 286.15 73.39 236.11 73.39 212.76 24.57 21.93 24.57 72.11 129.48 65.74 234.38 256.57 234.38 259.01 194.25 311.39 194.25 319.77 234.38 430.63 129.48"/><polygon points="430.81 129.26 276.13 24.36 286.33 73.17 236.29 73.17 212.94 24.36 22.11 24.36 72.29 129.26 65.92 234.16 256.75 234.16 259.19 194.03 311.57 194.03 319.95 234.16 430.81 129.26"/><polygon points="430.99 129.04 276.32 24.14 286.51 72.95 236.47 72.95 213.12 24.14 22.29 24.14 72.47 129.04 66.11 233.94 256.94 233.94 259.37 193.81 311.75 193.81 320.13 233.94 430.99 129.04"/><polygon points="431.17 128.82 276.5 23.92 286.69 72.74 236.65 72.74 213.3 23.92 22.47 23.92 72.65 128.82 66.29 233.73 257.12 233.73 259.55 193.59 311.93 193.59 320.31 233.73 431.17 128.82"/><polygon points="431.35 128.61 276.68 23.7 286.87 72.52 236.83 72.52 213.48 23.7 22.65 23.7 72.83 128.61 66.47 233.51 257.3 233.51 259.73 193.38 312.11 193.38 320.49 233.51 431.35 128.61"/><polygon points="431.54 128.39 276.86 23.49 287.05 72.3 237.02 72.3 213.66 23.49 22.84 23.49 73.02 128.39 66.65 233.29 257.48 233.29 259.92 193.16 312.29 193.16 320.67 233.29 431.54 128.39"/><polygon points="431.72 128.17 277.04 23.27 287.24 72.08 237.2 72.08 213.85 23.27 23.02 23.27 73.2 128.17 66.83 233.07 257.66 233.07 260.1 192.94 312.48 192.94 320.86 233.07 431.72 128.17"/><polygon points="431.9 127.95 277.22 23.05 287.42 71.87 237.38 71.87 214.03 23.05 23.2 23.05 73.38 127.95 67.01 232.86 257.84 232.86 260.28 192.73 312.66 192.73 321.04 232.86 431.9 127.95"/><polygon points="432.08 127.74 277.4 22.83 287.6 71.65 237.56 71.65 214.21 22.83 23.38 22.83 73.56 127.74 67.19 232.64 258.02 232.64 260.46 192.51 312.84 192.51 321.22 232.64 432.08 127.74"/><polygon points="432.26 127.52 277.58 22.62 287.78 71.43 237.74 71.43 214.39 22.62 23.56 22.62 73.74 127.52 67.38 232.42 258.2 232.42 260.64 192.29 313.02 192.29 321.4 232.42 432.26 127.52"/><polygon points="432.44 127.3 277.77 22.4 287.96 71.21 237.92 71.21 214.57 22.4 23.74 22.4 73.92 127.3 67.56 232.2 258.39 232.2 260.82 192.07 313.2 192.07 321.58 232.2 432.44 127.3"/><polygon points="432.62 127.08 277.95 22.18 288.14 71 238.1 71 214.75 22.18 23.92 22.18 74.1 127.08 67.74 231.99 258.57 231.99 261 191.86 313.38 191.86 321.76 231.99 432.62 127.08"/><polygon points="432.8 126.87 278.13 21.96 288.32 70.78 238.28 70.78 214.93 21.96 24.1 21.96 74.28 126.87 67.92 231.77 258.75 231.77 261.18 191.64 313.56 191.64 321.94 231.77 432.8 126.87"/><polygon points="432.99 126.65 278.31 21.75 288.5 70.56 238.47 70.56 215.12 21.75 24.29 21.75 74.47 126.65 68.1 231.55 258.93 231.55 261.36 191.42 313.74 191.42 322.12 231.55 432.99 126.65"/><polygon points="433.17 126.43 278.49 21.53 288.69 70.34 238.65 70.34 215.3 21.53 24.47 21.53 74.65 126.43 68.28 231.33 259.11 231.33 261.55 191.2 313.92 191.2 322.31 231.33 433.17 126.43"/><polygon points="433.35 126.21 278.67 21.31 288.87 70.13 238.83 70.13 215.48 21.31 24.65 21.31 74.83 126.21 68.46 231.12 259.29 231.12 261.73 190.99 314.11 190.99 322.49 231.12 433.35 126.21"/><polygon points="433.53 126 278.85 21.09 289.05 69.91 239.01 69.91 215.66 21.09 24.83 21.09 75.01 126 68.64 230.9 259.47 230.9 261.91 190.77 314.29 190.77 322.67 230.9 433.53 126"/><polygon points="433.71 125.78 279.03 20.88 289.23 69.69 239.19 69.69 215.84 20.88 25.01 20.88 75.19 125.78 68.83 230.68 259.65 230.68 262.09 190.55 314.47 190.55 322.85 230.68 433.71 125.78"/><polygon points="433.89 125.56 279.22 20.66 289.41 69.47 239.37 69.47 216.02 20.66 25.19 20.66 75.37 125.56 69.01 230.46 259.84 230.46 262.27 190.33 314.65 190.33 323.03 230.46 433.89 125.56"/><polygon points="434.07 125.34 279.4 20.44 289.59 69.26 239.55 69.26 216.2 20.44 25.37 20.44 75.55 125.34 69.19 230.25 260.02 230.25 262.45 190.12 314.83 190.12 323.21 230.25 434.07 125.34"/><polygon points="434.25 125.13 279.58 20.23 289.77 69.04 239.73 69.04 216.38 20.23 25.55 20.23 75.73 125.13 69.37 230.03 260.2 230.03 262.63 189.9 315.01 189.9 323.39 230.03 434.25 125.13"/><polygon points="434.44 124.91 279.76 20.01 289.95 68.82 239.91 68.82 216.56 20.01 25.73 20.01 75.92 124.91 69.55 229.81 260.38 229.81 262.81 189.68 315.19 189.68 323.57 229.81 434.44 124.91"/><polygon points="434.62 124.69 279.94 19.79 290.13 68.61 240.1 68.61 216.75 19.79 25.92 19.79 76.1 124.69 69.73 229.59 260.56 229.59 263 189.46 315.37 189.46 323.75 229.59 434.62 124.69"/><polygon points="434.8 124.47 280.12 19.57 290.32 68.39 240.28 68.39 216.93 19.57 26.1 19.57 76.28 124.47 69.91 229.38 260.74 229.38 263.18 189.25 315.56 189.25 323.94 229.38 434.8 124.47"/><polygon points="434.98 124.26 280.3 19.36 290.5 68.17 240.46 68.17 217.11 19.36 26.28 19.36 76.46 124.26 70.09 229.16 260.92 229.16 263.36 189.03 315.74 189.03 324.12 229.16 434.98 124.26"/><polygon points="435.16 124.04 280.48 19.14 290.68 67.95 240.64 67.95 217.29 19.14 26.46 19.14 76.64 124.04 70.28 228.94 261.1 228.94 263.54 188.81 315.92 188.81 324.3 228.94 435.16 124.04"/><polygon points="435.34 123.82 280.67 18.92 290.86 67.73 240.82 67.73 217.47 18.92 26.64 18.92 76.82 123.82 70.46 228.72 261.29 228.72 263.72 188.59 316.1 188.59 324.48 228.72 435.34 123.82"/><polygon points="435.52 123.6 280.85 18.7 291.04 67.52 241 67.52 217.65 18.7 26.82 18.7 77 123.6 70.64 228.51 261.47 228.51 263.9 188.38 316.28 188.38 324.66 228.51 435.52 123.6"/><polygon points="435.7 123.39 281.03 18.48 291.22 67.3 241.18 67.3 217.83 18.48 27 18.48 77.18 123.39 70.82 228.29 261.65 228.29 264.08 188.16 316.46 188.16 324.84 228.29 435.7 123.39"/><polygon points="435.88 123.17 281.21 18.27 291.4 67.08 241.37 67.08 218.01 18.27 27.18 18.27 77.36 123.17 71 228.07 261.83 228.07 264.26 187.94 316.64 187.94 325.02 228.07 435.88 123.17"/><polygon points="436.07 122.95 281.39 18.05 291.58 66.86 241.55 66.86 218.2 18.05 27.37 18.05 77.55 122.95 71.18 227.85 262.01 227.85 264.44 187.72 316.82 187.72 325.2 227.85 436.07 122.95"/><polygon points="436.25 122.73 281.57 17.83 291.77 66.65 241.73 66.65 218.38 17.83 27.55 17.83 77.73 122.73 71.36 227.64 262.19 227.64 264.63 187.51 317 187.51 325.39 227.64 436.25 122.73"/><polygon points="436.43 122.52 281.75 17.61 291.95 66.43 241.91 66.43 218.56 17.61 27.73 17.61 77.91 122.52 71.54 227.42 262.37 227.42 264.81 187.29 317.19 187.29 325.57 227.42 436.43 122.52"/><polygon points="436.61 122.3 281.93 17.4 292.13 66.21 242.09 66.21 218.74 17.4 27.91 17.4 78.09 122.3 71.72 227.2 262.55 227.2 264.99 187.07 317.37 187.07 325.75 227.2 436.61 122.3"/><polygon points="436.79 122.08 282.12 17.18 292.31 66 242.27 66 218.92 17.18 28.09 17.18 78.27 122.08 71.91 226.98 262.74 226.98 265.17 186.85 317.55 186.85 325.93 226.98 436.79 122.08"/><polygon points="436.97 121.86 282.3 16.96 292.49 65.78 242.45 65.78 219.1 16.96 28.27 16.96 78.45 121.86 72.09 226.77 262.92 226.77 265.35 186.64 317.73 186.64 326.11 226.77 436.97 121.86"/><polygon points="437.15 121.65 282.48 16.75 292.67 65.56 242.63 65.56 219.28 16.75 28.45 16.75 78.63 121.65 72.27 226.55 263.1 226.55 265.53 186.42 317.91 186.42 326.29 226.55 437.15 121.65"/><polygon points="437.33 121.43 282.66 16.53 292.85 65.34 242.81 65.34 219.47 16.53 28.64 16.53 78.81 121.43 72.45 226.33 263.28 226.33 265.71 186.2 318.09 186.2 326.47 226.33 437.33 121.43"/><polygon points="437.52 121.21 282.84 16.31 293.03 65.13 243 65.13 219.65 16.31 28.82 16.31 79 121.21 72.63 226.11 263.46 226.11 265.89 185.98 318.27 185.98 326.65 226.11 437.52 121.21"/><polygon points="437.7 121 283.02 16.09 293.22 64.91 243.18 64.91 219.83 16.09 29 16.09 79.18 121 72.81 225.9 263.64 225.9 266.08 185.77 318.45 185.77 326.84 225.9 437.7 121"/><polygon points="437.88 120.78 283.2 15.88 293.4 64.69 243.36 64.69 220.01 15.88 29.18 15.88 79.36 120.78 72.99 225.68 263.82 225.68 266.26 185.55 318.64 185.55 327.02 225.68 437.88 120.78"/><polygon points="438.06 120.56 283.38 15.66 293.58 64.47 243.54 64.47 220.19 15.66 29.36 15.66 79.54 120.56 73.17 225.46 264 225.46 266.44 185.33 318.82 185.33 327.2 225.46 438.06 120.56"/><polygon points="438.24 120.34 283.56 15.44 293.76 64.25 243.72 64.25 220.37 15.44 29.54 15.44 79.72 120.34 73.36 225.24 264.19 225.24 266.62 185.11 319 185.11 327.38 225.24 438.24 120.34"/><polygon points="438.42 120.13 283.75 15.22 293.94 64.04 243.9 64.04 220.55 15.22 29.72 15.22 79.9 120.13 73.54 225.03 264.37 225.03 266.8 184.9 319.18 184.9 327.56 225.03 438.42 120.13"/><polygon points="438.6 119.91 283.93 15.01 294.12 63.82 244.08 63.82 220.73 15.01 29.9 15.01 80.08 119.91 73.72 224.81 264.55 224.81 266.98 184.68 319.36 184.68 327.74 224.81 438.6 119.91"/><polygon points="438.78 119.69 284.11 14.79 294.3 63.6 244.26 63.6 220.91 14.79 30.09 14.79 80.27 119.69 73.9 224.59 264.73 224.59 267.16 184.46 319.54 184.46 327.92 224.59 438.78 119.69"/><polygon points="438.96 119.47 284.29 14.57 294.48 63.38 244.45 63.38 221.1 14.57 30.27 14.57 80.45 119.47 74.08 224.38 264.91 224.38 267.35 184.24 319.72 184.24 328.11 224.38 438.96 119.47"/><polygon points="439.15 119.25 284.47 14.35 294.67 63.17 244.63 63.17 221.28 14.35 30.45 14.35 80.63 119.25 74.26 224.16 265.09 224.16 267.53 184.03 319.9 184.03 328.29 224.16 439.15 119.25"/><polygon points="439.33 119.04 284.65 14.14 294.85 62.95 244.81 62.95 221.46 14.14 30.63 14.14 80.81 119.04 74.44 223.94 265.27 223.94 267.71 183.81 320.09 183.81 328.47 223.94 439.33 119.04"/><polygon points="439.51 118.82 284.83 13.92 295.03 62.73 244.99 62.73 221.64 13.92 30.81 13.92 80.99 118.82 74.62 223.72 265.45 223.72 267.89 183.59 320.27 183.59 328.65 223.72 439.51 118.82"/><polygon points="439.69 118.6 285.01 13.7 295.21 62.52 245.17 62.52 221.82 13.7 30.99 13.7 81.17 118.6 74.81 223.5 265.63 223.5 268.07 183.37 320.45 183.37 328.83 223.5 439.69 118.6"/><polygon points="439.87 118.39 285.2 13.48 295.39 62.3 245.35 62.3 222 13.48 31.17 13.48 81.35 118.39 74.99 223.29 265.82 223.29 268.25 183.16 320.63 183.16 329.01 223.29 439.87 118.39"/><polygon points="440.05 118.17 285.38 13.27 295.57 62.08 245.53 62.08 222.18 13.27 31.35 13.27 81.53 118.17 75.17 223.07 266 223.07 268.43 182.94 320.81 182.94 329.19 223.07 440.05 118.17"/><polygon points="440.23 117.95 285.56 13.05 295.75 61.86 245.72 61.86 222.36 13.05 31.54 13.05 81.71 117.95 75.35 222.85 266.18 222.85 268.61 182.72 320.99 182.72 329.37 222.85 440.23 117.95"/><polygon points="440.42 117.73 285.74 12.83 295.93 61.65 245.9 61.65 222.55 12.83 31.72 12.83 81.9 117.73 75.53 222.63 266.36 222.63 268.8 182.5 321.17 182.5 329.55 222.63 440.42 117.73"/><polygon points="440.6 117.52 285.92 12.61 296.12 61.43 246.08 61.43 222.73 12.61 31.9 12.61 82.08 117.52 75.71 222.42 266.54 222.42 268.98 182.29 321.36 182.29 329.74 222.42 440.6 117.52"/><polygon points="440.78 117.3 286.1 12.4 296.3 61.21 246.26 61.21 222.91 12.4 32.08 12.4 82.26 117.3 75.89 222.2 266.72 222.2 269.16 182.07 321.54 182.07 329.92 222.2 440.78 117.3"/><polygon points="440.96 117.08 286.28 12.18 296.48 60.99 246.44 60.99 223.09 12.18 32.26 12.18 82.44 117.08 76.07 221.98 266.9 221.98 269.34 181.85 321.72 181.85 330.1 221.98 440.96 117.08"/><polygon points="441.14 116.86 286.46 11.96 296.66 60.78 246.62 60.78 223.27 11.96 32.44 11.96 82.62 116.86 76.25 221.76 267.08 221.76 269.52 181.63 321.9 181.63 330.28 221.76 441.14 116.86"/><polygon points="441.32 116.64 286.65 11.74 296.84 60.56 246.8 60.56 223.45 11.74 32.62 11.74 82.8 116.64 76.44 221.55 267.27 221.55 269.7 181.42 322.08 181.42 330.46 221.55 441.32 116.64"/><polygon points="441.5 116.43 286.83 11.53 297.02 60.34 246.98 60.34 223.63 11.53 32.8 11.53 82.98 116.43 76.62 221.33 267.45 221.33 269.88 181.2 322.26 181.2 330.64 221.33 441.5 116.43"/><polygon points="441.68 116.21 287.01 11.31 297.2 60.12 247.16 60.12 223.81 11.31 32.98 11.31 83.16 116.21 76.8 221.11 267.63 221.11 270.06 180.98 322.44 180.98 330.82 221.11 441.68 116.21"/><polygon points="441.87 115.99 287.19 11.09 297.38 59.91 247.35 59.91 224 11.09 33.17 11.09 83.34 115.99 76.98 220.9 267.81 220.9 270.25 180.76 322.62 180.76 331 220.9 441.87 115.99"/><polygon points="442.05 115.78 287.37 10.87 297.56 59.69 247.53 59.69 224.18 10.87 33.35 10.87 83.53 115.78 77.16 220.68 267.99 220.68 270.43 180.55 322.81 180.55 331.19 220.68 442.05 115.78"/><polygon points="442.23 115.56 287.55 10.66 297.75 59.47 247.71 59.47 224.36 10.66 33.53 10.66 83.71 115.56 77.34 220.46 268.17 220.46 270.61 180.33 322.99 180.33 331.37 220.46 442.23 115.56"/><polygon points="442.41 115.34 287.73 10.44 297.93 59.25 247.89 59.25 224.54 10.44 33.71 10.44 83.89 115.34 77.52 220.24 268.35 220.24 270.79 180.11 323.17 180.11 331.55 220.24 442.41 115.34"/><polygon points="442.59 115.12 287.92 10.22 298.11 59.04 248.07 59.04 224.72 10.22 33.89 10.22 84.07 115.12 77.7 220.03 268.54 220.03 270.97 179.9 323.35 179.9 331.73 220.03 442.59 115.12"/><polygon points="442.77 114.91 288.1 10 298.29 58.82 248.25 58.82 224.9 10 34.07 10 84.25 114.91 77.89 219.81 268.72 219.81 271.15 179.68 323.53 179.68 331.91 219.81 442.77 114.91"/><polygon points="442.95 114.69 288.28 9.79 298.47 58.6 248.43 58.6 225.08 9.79 34.25 9.79 84.43 114.69 78.07 219.59 268.9 219.59 271.33 179.46 323.71 179.46 332.09 219.59 442.95 114.69"/><polygon points="443.13 114.47 288.46 9.57 298.65 58.38 248.62 58.38 225.26 9.57 34.43 9.57 84.61 114.47 78.25 219.37 269.08 219.37 271.51 179.24 323.89 179.24 332.27 219.37 443.13 114.47"/><polygon points="443.31 114.25 288.64 9.35 298.83 58.17 248.8 58.17 225.44 9.35 34.62 9.35 84.8 114.25 78.43 219.16 269.26 219.16 271.69 179.03 324.07 179.03 332.45 219.16 443.31 114.25"/><polygon points="443.5 114.04 288.82 9.13 299.01 57.95 248.98 57.95 225.63 9.13 34.8 9.13 84.98 114.04 78.61 218.94 269.44 218.94 271.88 178.81 324.25 178.81 332.63 218.94 443.5 114.04"/><polygon points="443.68 113.82 289 8.92 299.2 57.73 249.16 57.73 225.81 8.92 34.98 8.92 85.16 113.82 78.79 218.72 269.62 218.72 272.06 178.59 324.44 178.59 332.82 218.72 443.68 113.82"/><polygon points="443.86 113.6 289.18 8.7 299.38 57.51 249.34 57.51 225.99 8.7 35.16 8.7 85.34 113.6 78.97 218.5 269.8 218.5 272.24 178.37 324.62 178.37 333 218.5 443.86 113.6"/><polygon points="444.04 113.38 289.37 8.48 299.56 57.3 249.52 57.3 226.17 8.48 35.34 8.48 85.52 113.38 79.16 218.28 269.99 218.28 272.42 178.16 324.8 178.16 333.18 218.28 444.04 113.38"/><polygon points="444.22 113.17 289.55 8.26 299.74 57.08 249.7 57.08 226.35 8.26 35.52 8.26 85.7 113.17 79.34 218.07 270.17 218.07 272.6 177.94 324.98 177.94 333.36 218.07 444.22 113.17"/><polygon points="444.4 112.95 289.73 8.05 299.92 56.86 249.88 56.86 226.53 8.05 35.7 8.05 85.88 112.95 79.52 217.85 270.35 217.85 272.78 177.72 325.16 177.72 333.54 217.85 444.4 112.95"/><polygon points="444.58 112.73 289.91 7.83 300.1 56.64 250.06 56.64 226.71 7.83 35.88 7.83 86.06 112.73 79.7 217.63 270.53 217.63 272.96 177.5 325.34 177.5 333.72 217.63 444.58 112.73"/><polygon points="444.76 112.51 290.09 7.61 300.28 56.43 250.25 56.43 226.9 7.61 36.07 7.61 86.25 112.51 79.88 217.42 270.71 217.42 273.14 177.28 325.52 177.28 333.9 217.42 444.76 112.51"/><polygon points="444.95 112.3 290.27 7.39 300.46 56.21 250.43 56.21 227.08 7.39 36.25 7.39 86.43 112.3 80.06 217.2 270.89 217.2 273.33 177.07 325.7 177.07 334.08 217.2 444.95 112.3"/><polygon points="445.13 112.08 290.45 7.18 300.65 55.99 250.61 55.99 227.26 7.18 36.43 7.18 86.61 112.08 80.24 216.98 271.07 216.98 273.51 176.85 325.89 176.85 334.27 216.98 445.13 112.08"/><polygon points="445.31 111.86 290.63 6.96 300.83 55.77 250.79 55.77 227.44 6.96 36.61 6.96 86.79 111.86 80.42 216.76 271.25 216.76 273.69 176.63 326.07 176.63 334.45 216.76 445.31 111.86"/><polygon points="445.49 111.64 290.81 6.74 301.01 55.56 250.97 55.56 227.62 6.74 36.79 6.74 86.97 111.64 80.61 216.55 271.44 216.55 273.87 176.41 326.25 176.41 334.63 216.55 445.49 111.64"/><polygon points="445.67 111.43 291 6.52 301.19 55.34 251.15 55.34 227.8 6.52 36.97 6.52 87.15 111.43 80.79 216.33 271.62 216.33 274.05 176.2 326.43 176.2 334.81 216.33 445.67 111.43"/><polygon points="445.85 111.21 291.18 6.31 301.37 55.12 251.33 55.12 227.98 6.31 37.15 6.31 87.33 111.21 80.97 216.11 271.8 216.11 274.23 175.98 326.61 175.98 334.99 216.11 445.85 111.21"/><polygon points="446.03 110.99 291.36 6.09 301.55 54.9 251.51 54.9 228.16 6.09 37.33 6.09 87.51 110.99 81.15 215.89 271.98 215.89 274.41 175.76 326.79 175.76 335.17 215.89 446.03 110.99"/><polygon points="446.21 110.77 291.54 5.87 301.73 54.69 251.7 54.69 228.34 5.87 37.52 5.87 87.69 110.77 81.33 215.68 272.16 215.68 274.59 175.54 326.97 175.54 335.35 215.68 446.21 110.77"/><polygon points="446.4 110.56 291.72 5.65 301.92 54.47 251.88 54.47 228.53 5.65 37.7 5.65 87.88 110.56 81.51 215.46 272.34 215.46 274.78 175.33 327.15 175.33 335.54 215.46 446.4 110.56"/><polygon points="446.58 110.34 291.9 5.44 302.1 54.25 252.06 54.25 228.71 5.44 37.88 5.44 88.06 110.34 81.69 215.24 272.52 215.24 274.96 175.11 327.34 175.11 335.72 215.24 446.58 110.34"/><polygon points="446.76 110.12 292.08 5.22 302.28 54.03 252.24 54.03 228.89 5.22 38.06 5.22 88.24 110.12 81.87 215.02 272.7 215.02 275.14 174.89 327.52 174.89 335.9 215.02 446.76 110.12"/><polygon points="446.94 109.9 292.26 5 302.46 53.82 252.42 53.82 229.07 5 38.24 5 88.42 109.9 82.06 214.81 272.88 214.81 275.32 174.68 327.7 174.68 336.08 214.81 446.94 109.9"/><polygon points="447.12 109.69 292.45 4.78 302.64 53.6 252.6 53.6 229.25 4.78 38.42 4.78 88.6 109.69 82.24 214.59 273.07 214.59 275.5 174.46 327.88 174.46 336.26 214.59 447.12 109.69"/><polygon points="447.3 109.47 292.63 4.57 302.82 53.38 252.78 53.38 229.43 4.57 38.6 4.57 88.78 109.47 82.42 214.37 273.25 214.37 275.68 174.24 328.06 174.24 336.44 214.37 447.3 109.47"/><polygon points="447.48 109.25 292.81 4.35 303 53.16 252.96 53.16 229.61 4.35 38.78 4.35 88.96 109.25 82.6 214.15 273.43 214.15 275.86 174.02 328.24 174.02 336.62 214.15 447.48 109.25"/><polygon points="447.67 109.03 292.99 4.13 303.18 52.95 253.15 52.95 229.79 4.13 38.97 4.13 89.14 109.03 82.78 213.94 273.61 213.94 276.04 173.81 328.42 173.81 336.8 213.94 447.67 109.03"/><polygon points="447.85 108.82 293.17 3.91 303.37 52.73 253.33 52.73 229.98 3.91 39.15 3.91 89.33 108.82 82.96 213.72 273.79 213.72 276.23 173.59 328.6 173.59 336.99 213.72 447.85 108.82"/><polygon points="448.03 108.6 293.35 3.7 303.55 52.51 253.51 52.51 230.16 3.7 39.33 3.7 89.51 108.6 83.14 213.5 273.97 213.5 276.41 173.37 328.79 173.37 337.17 213.5 448.03 108.6"/><polygon points="448.21 108.38 293.53 3.48 303.73 52.29 253.69 52.29 230.34 3.48 39.51 3.48 89.69 108.38 83.32 213.28 274.15 213.28 276.59 173.15 328.97 173.15 337.35 213.28 448.21 108.38"/><polygon points="448.39 108.16 293.71 3.26 303.91 52.08 253.87 52.08 230.52 3.26 39.69 3.26 89.87 108.16 83.5 213.07 274.33 213.07 276.77 172.94 329.15 172.94 337.53 213.07 448.39 108.16"/><polygon points="448.57 107.95 293.89 3.04 304.09 51.86 254.05 51.86 230.7 3.04 39.87 3.04 90.05 107.95 83.69 212.85 274.52 212.85 276.95 172.72 329.33 172.72 337.71 212.85 448.57 107.95"/><polygon points="448.75 107.73 294.08 2.83 304.27 51.64 254.23 51.64 230.88 2.83 40.05 2.83 90.23 107.73 83.87 212.63 274.7 212.63 277.13 172.5 329.51 172.5 337.89 212.63 448.75 107.73"/><polygon points="448.93 107.51 294.26 2.61 304.45 51.42 254.41 51.42 231.06 2.61 40.23 2.61 90.41 107.51 84.05 212.41 274.88 212.41 277.31 172.28 329.69 172.28 338.07 212.41 448.93 107.51"/><polygon points="449.12 107.29 294.44 2.39 304.63 51.21 254.59 51.21 231.25 2.39 40.41 2.39 90.59 107.29 84.23 212.2 275.06 212.2 277.49 172.07 329.87 172.07 338.25 212.2 449.12 107.29"/><polygon points="449.3 107.08 294.62 2.17 304.81 50.99 254.78 50.99 231.43 2.17 40.6 2.17 90.78 107.08 84.41 211.98 275.24 211.98 277.68 171.85 330.05 171.85 338.44 211.98 449.3 107.08"/><polygon points="449.48 106.86 294.8 1.96 305 50.77 254.96 50.77 231.61 1.96 40.78 1.96 90.96 106.86 84.59 211.76 275.42 211.76 277.86 171.63 330.24 171.63 338.62 211.76 449.48 106.86"/><polygon points="449.66 106.64 294.98 1.74 305.18 50.55 255.14 50.55 231.79 1.74 40.96 1.74 91.14 106.64 84.77 211.54 275.6 211.54 278.04 171.41 330.42 171.41 338.8 211.54 449.66 106.64"/><polygon points="449.84 106.42 295.16 1.52 305.36 50.34 255.32 50.34 231.97 1.52 41.14 1.52 91.32 106.42 84.95 211.33 275.78 211.33 278.22 171.2 330.6 171.2 338.98 211.33 449.84 106.42"/><polygon points="450.02 106.21 295.35 1.3 305.54 50.12 255.5 50.12 232.15 1.3 41.32 1.3 91.5 106.21 85.14 211.11 275.96 211.11 278.4 170.98 330.78 170.98 339.16 211.11 450.02 106.21"/><polygon points="450.2 105.99 295.53 1.09 305.72 49.9 255.68 49.9 232.33 1.09 41.5 1.09 91.68 105.99 85.32 210.89 276.15 210.89 278.58 170.76 330.96 170.76 339.34 210.89 450.2 105.99"/><polygon points="450.38 105.77 295.71 0.87 305.9 49.69 255.86 49.69 232.51 0.87 41.68 0.87 91.86 105.77 85.5 210.67 276.33 210.67 278.76 170.54 331.14 170.54 339.52 210.67 450.38 105.77"/><polygon points="450.56 105.55 295.89 0.65 306.08 49.47 256.05 49.47 232.69 0.65 41.87 0.65 92.05 105.55 85.68 210.46 276.51 210.46 278.94 170.33 331.32 170.33 339.7 210.46 450.56 105.55"/><polygon points="450.75 105.34 296.07 0.43 306.26 49.25 256.23 49.25 232.88 0.43 42.05 0.43 92.23 105.34 85.86 210.24 276.69 210.24 279.13 170.11 331.5 170.11 339.88 210.24 450.75 105.34"/><polygon points="450.93 105.12 296.25 0.22 306.45 49.03 256.41 49.03 233.06 0.22 42.23 0.22 92.41 105.12 86.04 210.02 276.87 210.02 279.31 169.89 331.69 169.89 340.07 210.02 450.93 105.12"/><polygon points="451.11 104.9 296.43 0 306.63 48.81 256.59 48.81 233.24 0 42.41 0 92.59 104.9 86.22 209.8 277.05 209.8 279.49 169.67 331.87 169.67 340.25 209.8 451.11 104.9"/><path class="cls-1" d="M89.23,207l6.18-101.91a2.79,2.79,0,0,0-.27-1.39L46.89,2.83H231.46L254,50a2.81,2.81,0,0,0,2.55,1.61h50a2.82,2.82,0,0,0,2.19-1,2.79,2.79,0,0,0,.57-2.36l-8.76-42,146,99L342,204.27l-7.35-35.17a2.82,2.82,0,0,0-2.76-2.25H279.49a2.82,2.82,0,0,0-2.82,2.65L274.39,207Z"/><path class="cls-2" d="M229.68,5.65l21.81,45.6a5.65,5.65,0,0,0,5.1,3.22h50a5.66,5.66,0,0,0,5.53-6.81l-7.34-35.14,137.29,93.11-98.4,93.11-6.31-30.22a5.66,5.66,0,0,0-5.53-4.5H279.49a5.67,5.67,0,0,0-5.65,5.31l-2.11,34.82H92.23l6-98.91a5.7,5.7,0,0,0-.54-2.78L51.38,5.65h178.3M296.43,0l10.2,48.82h-50L233.24,0H42.41L92.59,104.9,86.22,209.8H277.05l2.44-40.13h52.38l8.38,40.13L451.11,104.9,296.43,0Z"/><path class="cls-2" d="M115.13,68.88H144.2v4.56H123.9v3h19.81V81H123.9v8h-8.77Z"/><path class="cls-2" d="M170,89.27h-1.37a38.4,38.4,0,0,1-5.72-.4,23.12,23.12,0,0,1-4.37-1,15.09,15.09,0,0,1-3.14-1.57,10.47,10.47,0,0,1-2.15-1.86,9.33,9.33,0,0,1-1.3-2,8.26,8.26,0,0,1-.68-2,8.94,8.94,0,0,1-.17-1.78V68.88H160v9.37a5,5,0,0,0,.4,2,5.69,5.69,0,0,0,1.34,1.84,6.66,6.66,0,0,0,2.89,1.43,18.18,18.18,0,0,0,4.67.52,17.48,17.48,0,0,0,4.59-.52,6.81,6.81,0,0,0,2.87-1.43,5.67,5.67,0,0,0,1.37-1.84,5.14,5.14,0,0,0,.39-2V68.88h8.81v9.75a8.56,8.56,0,0,1-.4,2.58A9.07,9.07,0,0,1,185.34,84a11.1,11.1,0,0,1-3,2.63,17.11,17.11,0,0,1-5,1.89A32.13,32.13,0,0,1,170,89.27Z"/><path class="cls-2" d="M194.81,68.88h8.81V84h19.54v5H194.81Z"/><path class="cls-2" d="M230,68.88h8.8V84h19.55v5H230Z"/><path class="cls-2" d="M123.94,105.84V113h-8.81V92.88h22.68q12.21,0,12.21,5.21v.33a3.33,3.33,0,0,1-.53,1.82,3.92,3.92,0,0,1-1.42,1.32,10.57,10.57,0,0,1-1.66.78,13.66,13.66,0,0,1-1.61.48,8.59,8.59,0,0,1,3.84,1.62,3.68,3.68,0,0,1,1.49,3v2.95a4.38,4.38,0,0,0,.53,2.45V113h-9a1.68,1.68,0,0,1-.41-1.27v-2.32a3,3,0,0,0-1.32-2.7,9,9,0,0,0-4.54-.84Zm0-8.4v4h13.34a5.25,5.25,0,0,0,2.67-.54,1.63,1.63,0,0,0,.88-1.44v0A1.62,1.62,0,0,0,140,98a5.26,5.26,0,0,0-2.69-.54Z"/><path class="cls-2" d="M157.16,92.88H186.8v4.56H165.86v3h20.45V105H165.86v3.3h21.32V113h-30Z"/><path class="cls-2" d="M215.49,106.27H203.2V113h-8.8V92.88h21.09q13.11,0,13.12,6.53v.27Q228.61,106.28,215.49,106.27ZM203.2,97.44v4.32h12.14q4.08,0,4.08-2.1v-.08c0-1.42-1.36-2.14-4.08-2.14Z"/><path class="cls-2" d="M253.74,92.53h1.63a55.92,55.92,0,0,1,6.65.36,33.41,33.41,0,0,1,5,1,17,17,0,0,1,3.53,1.46A11,11,0,0,1,272.93,97a8.32,8.32,0,0,1,1.38,1.89,7.19,7.19,0,0,1,.68,1.83,9.38,9.38,0,0,1,.15,1.71v.81A9.18,9.18,0,0,1,275,105a7.44,7.44,0,0,1-.68,1.85,8.44,8.44,0,0,1-1.37,1.92,10.24,10.24,0,0,1-2.36,1.75,17.11,17.11,0,0,1-3.53,1.49,31.5,31.5,0,0,1-5,1,54.1,54.1,0,0,1-6.67.38h-1.63a54.68,54.68,0,0,1-6.69-.38,31.35,31.35,0,0,1-5-1,17.11,17.11,0,0,1-3.53-1.49,10.87,10.87,0,0,1-2.38-1.75,7.56,7.56,0,0,1-1.36-1.92,7.3,7.3,0,0,1-.66-1.85,9.18,9.18,0,0,1-.16-1.67v-.81a9.06,9.06,0,0,1,.16-1.69,7.53,7.53,0,0,1,.66-1.84,7.29,7.29,0,0,1,1.36-1.9,10.93,10.93,0,0,1,2.36-1.73A17.06,17.06,0,0,1,242,93.85a32.9,32.9,0,0,1,5-1A57,57,0,0,1,253.74,92.53Zm12.17,10.12a4.13,4.13,0,0,0-.26-1.44,4,4,0,0,0-1-1.4,6.51,6.51,0,0,0-2-1.23,14.54,14.54,0,0,0-3.3-.85,30.07,30.07,0,0,0-4.82-.34q-11.39,0-11.38,5.26V103a3.84,3.84,0,0,0,.47,1.84,5.74,5.74,0,0,0,1.63,1.72,9,9,0,0,0,3.53,1.38,27.87,27.87,0,0,0,5.75.51,27.56,27.56,0,0,0,5.72-.5,9.33,9.33,0,0,0,3.54-1.35,5.42,5.42,0,0,0,1.64-1.71,3.73,3.73,0,0,0,.47-1.84Z"/><path class="cls-2" d="M290.67,105.84V113h-8.81V92.88h22.68q12.21,0,12.21,5.21v.33a3.25,3.25,0,0,1-.53,1.82,3.89,3.89,0,0,1-1.41,1.32,10.65,10.65,0,0,1-1.67.78,13.5,13.5,0,0,1-1.6.48,8.54,8.54,0,0,1,3.83,1.62,3.66,3.66,0,0,1,1.5,3v2.95a4.3,4.3,0,0,0,.53,2.45V113h-9a1.65,1.65,0,0,1-.42-1.27v-2.32a3,3,0,0,0-1.32-2.7,9,9,0,0,0-4.54-.84Zm0-8.4v4H304a5.21,5.21,0,0,0,2.66-.54,1.64,1.64,0,0,0,.89-1.44v0A1.61,1.61,0,0,0,306.7,98a5.22,5.22,0,0,0-2.68-.54Z"/><path class="cls-2" d="M334.52,113V97.63h-12.1V92.88h33.12v4.75H343.4V113Z"/><path class="cls-2" d="M123.94,116.88V137h-8.81V116.88Z"/><path class="cls-2" d="M131.8,116.88h9.83l18,12.64V116.88h8.7V137h-8.7l-19.09-13.31V137H131.8Z"/><path class="cls-2" d="M191.15,137.32a46.31,46.31,0,0,1-7.34-.51,22,22,0,0,1-4.84-1.25,8.16,8.16,0,0,1-2.7-1.76,5.26,5.26,0,0,1-1.28-1.88,5.49,5.49,0,0,1-.29-1.78v-.3h9.19c.2,2.12,3,3.19,8.35,3.19h.53c1.76,0,3.23-.06,4.39-.18a9.9,9.9,0,0,0,2.53-.5,2.54,2.54,0,0,0,1.06-.66,1.3,1.3,0,0,0,.26-.8,1.26,1.26,0,0,0-.45-1,5.22,5.22,0,0,0-2.12-.66,34.51,34.51,0,0,0-4.8-.34l-4.84-.08q-13.73-.27-13.72-5.89v-.24a4.17,4.17,0,0,1,.62-2.24,6.31,6.31,0,0,1,2.2-1.93,13.86,13.86,0,0,1,4.74-1.45,49.92,49.92,0,0,1,7.75-.51H193a54.33,54.33,0,0,1,6.8.38,24.72,24.72,0,0,1,4.71,1,9.74,9.74,0,0,1,2.87,1.46,5.23,5.23,0,0,1,1.53,1.71,4.08,4.08,0,0,1,.42,1.82v.27h-9.15q-.45-2.4-8.13-2.4h-.6a31.49,31.49,0,0,0-4.88.29,5.1,5.1,0,0,0-2.06.6,1.09,1.09,0,0,0-.36.84,1.06,1.06,0,0,0,.38.82,4.4,4.4,0,0,0,1.89.61,27.23,27.23,0,0,0,4.23.3l4.73,0q7.91.1,11.38,1.53t3.47,4.44v.38a5.34,5.34,0,0,1-.34,2,4.71,4.71,0,0,1-1.39,1.8,8.91,8.91,0,0,1-2.82,1.54,24.45,24.45,0,0,1-4.8,1,56.94,56.94,0,0,1-7.13.39Z"/><path class="cls-2" d="M225.58,116.88V137h-8.81V116.88Z"/><path class="cls-2" d="M233.44,137V116.88h18.64a60.74,60.74,0,0,1,7.1.38,27.23,27.23,0,0,1,5.3,1.09,19.58,19.58,0,0,1,3.62,1.6,7.16,7.16,0,0,1,2.31,2,8.33,8.33,0,0,1,1.15,2.17,7.07,7.07,0,0,1,.36,2.28v.81a8,8,0,0,1-.45,2.7,7.14,7.14,0,0,1-1.8,2.61,11.6,11.6,0,0,1-3.45,2.3,24.23,24.23,0,0,1-5.75,1.56,50.45,50.45,0,0,1-8.35.61Zm8.81-15.34v10.51h9.15q11.29,0,11.3-5.19v-.16q0-5.16-11.3-5.16Z"/><path class="cls-2" d="M278.5,116.88h29.63v4.56H287.19v3h20.45V129H287.19v3.3h21.32V137h-30Z"/></g></g></svg>
