<svg xmlns="http://www.w3.org/2000/svg" xmlns:xlink="http://www.w3.org/1999/xlink" viewBox="0 0 226.77 226.77"><defs><style>.cls-1{fill:none;}.cls-2{fill:#F36E54;}.cls-3{isolation:isolate;}.cls-4{mix-blend-mode:multiply;fill:url(#New_Pattern_10);}</style><pattern id="New_Pattern_10" data-name="New Pattern 10" width="676.14" height="680.32" patternTransform="translate(446.82 -29.63) rotate(-45) scale(0.4)" patternUnits="userSpaceOnUse" viewBox="0 0 676.14 680.32"><rect class="cls-1" width="676.14" height="680.32"/><path class="cls-2" d="M635.16,60.69H574.47v-8h60.69L687.85,0h-85V4H542.12L497.83,48.29a11.89,11.89,0,0,0,0,16.81l44.29,44.29h60.69v8H542.12l-44.29,44.29a11.88,11.88,0,0,0,0,16.8l44.29,44.29h60.69v8H542.12l-44.29,44.29a11.89,11.89,0,0,0,0,16.81l44.29,44.29h60.69v8H542.12l-44.29,44.29a11.88,11.88,0,0,0,0,16.8l44.29,44.29h60.69v8H542.12l-44.29,44.29a11.89,11.89,0,0,0,0,16.81l44.29,44.29h60.69v8H542.12l-44.29,44.29a11.89,11.89,0,0,0,0,16.81l44.29,44.29h60.69v4h85l-52.69-52.7H574.47v-8h60.69l44.29-44.29a11.88,11.88,0,0,0,0-16.8l-44.29-44.29H574.47v-8h60.69L679.45,462a11.89,11.89,0,0,0,0-16.81l-44.29-44.29H574.47v-8h60.69l44.29-44.29a11.88,11.88,0,0,0,0-16.8l-44.29-44.3H574.47v-8h60.69l44.29-44.29a11.88,11.88,0,0,0,0-16.8l-44.29-44.29H574.47v-8h60.69l44.29-44.29a11.89,11.89,0,0,0,0-16.81Z"/><path class="cls-2" d="M805.24,166.08l44.29-44.29a11.89,11.89,0,0,0,0-16.81L805.24,60.69H744.55v-8h60.69L857.93,0h-85V4H712.2L667.91,48.29a11.89,11.89,0,0,0,0,16.81l44.29,44.29h60.69v8H712.2l-44.29,44.29a11.88,11.88,0,0,0,0,16.8l44.29,44.29h60.69v8H712.2l-44.29,44.29a11.89,11.89,0,0,0,0,16.81l44.29,44.29h60.69v8H712.2l-44.29,44.29a11.88,11.88,0,0,0,0,16.8l44.29,44.29h60.69v8H712.2l-44.29,44.29a11.89,11.89,0,0,0,0,16.81l44.29,44.29h60.69v8H712.2l-44.29,44.29a11.89,11.89,0,0,0,0,16.81l44.29,44.29h60.69v4h85l-52.69-52.7H744.55v-8h60.69l44.29-44.29a11.88,11.88,0,0,0,0-16.8l-44.29-44.29H744.55v-8h60.69L849.53,462a11.89,11.89,0,0,0,0-16.81l-44.29-44.29H744.55v-8h60.69l44.29-44.29a11.88,11.88,0,0,0,0-16.8l-44.29-44.3H744.55v-8h60.69l44.29-44.29a11.88,11.88,0,0,0,0-16.8l-44.29-44.29H744.55v-8Z"/><path class="cls-2" d="M297.09,60.69H236.4v-8h60.69L349.78,0h-85V4H204.05L159.76,48.29a11.89,11.89,0,0,0,0,16.81l44.29,44.29h60.69v8H204.05l-44.29,44.29a11.88,11.88,0,0,0,0,16.8l44.29,44.29h60.69v8H204.05l-44.29,44.29a11.89,11.89,0,0,0,0,16.81l44.29,44.29h60.69v8H204.05l-44.29,44.29a11.88,11.88,0,0,0,0,16.8l44.29,44.29h60.69v8H204.05l-44.29,44.29a11.89,11.89,0,0,0,0,16.81l44.29,44.29h60.69v8H204.05l-44.29,44.29a11.89,11.89,0,0,0,0,16.81l44.29,44.29h60.69v4h85l-52.69-52.7H236.4v-8h60.69l44.29-44.29a11.88,11.88,0,0,0,0-16.8l-44.29-44.29H236.4v-8h60.69L341.38,462a11.89,11.89,0,0,0,0-16.81l-44.29-44.29H236.4v-8h60.69l44.29-44.29a11.88,11.88,0,0,0,0-16.8l-44.29-44.3H236.4v-8h60.69l44.29-44.29a11.88,11.88,0,0,0,0-16.8l-44.29-44.29H236.4v-8h60.69l44.29-44.29a11.89,11.89,0,0,0,0-16.81Z"/><path class="cls-2" d="M467.17,166.08l44.29-44.29a11.89,11.89,0,0,0,0-16.81L467.17,60.69H406.48v-8h60.69L519.86,0h-85V4H374.13L329.84,48.29a11.89,11.89,0,0,0,0,16.81l44.29,44.29h60.69v8H374.13l-44.29,44.29a11.88,11.88,0,0,0,0,16.8l44.29,44.29h60.69v8H374.13l-44.29,44.29a11.89,11.89,0,0,0,0,16.81l44.29,44.29h60.69v8H374.13l-44.29,44.29a11.88,11.88,0,0,0,0,16.8l44.29,44.29h60.69v8H374.13l-44.29,44.29a11.89,11.89,0,0,0,0,16.81l44.29,44.29h60.69v8H374.13l-44.29,44.29a11.89,11.89,0,0,0,0,16.81l44.29,44.29h60.69v4h85l-52.69-52.7H406.48v-8h60.69l44.29-44.29a11.88,11.88,0,0,0,0-16.8l-44.29-44.29H406.48v-8h60.69L511.46,462a11.89,11.89,0,0,0,0-16.81l-44.29-44.29H406.48v-8h60.69l44.29-44.29a11.88,11.88,0,0,0,0-16.8l-44.29-44.3H406.48v-8h60.69l44.29-44.29a11.88,11.88,0,0,0,0-16.8l-44.29-44.29H406.48v-8Z"/><path class="cls-2" d="M-41,60.69h-60.69v-8H-41L11.71,0h-85V4H-134l-44.29,44.29a11.89,11.89,0,0,0,0,16.81L-134,109.39h60.69v8H-134l-44.29,44.29a11.88,11.88,0,0,0,0,16.8L-134,222.77h60.69v8H-134l-44.29,44.29a11.89,11.89,0,0,0,0,16.81L-134,336.16h60.69v8H-134l-44.29,44.29a11.88,11.88,0,0,0,0,16.8L-134,449.54h60.69v8H-134l-44.29,44.29a11.89,11.89,0,0,0,0,16.81L-134,562.93h60.69v8H-134l-44.29,44.29a11.89,11.89,0,0,0,0,16.81L-134,676.32h60.69v4h85L-41,627.62h-60.69v-8H-41L3.31,575.33a11.88,11.88,0,0,0,0-16.8L-41,514.24h-60.69v-8H-41L3.31,462a11.89,11.89,0,0,0,0-16.81L-41,400.85h-60.69v-8H-41L3.31,348.56a11.88,11.88,0,0,0,0-16.8L-41,287.46h-60.69v-8H-41L3.31,235.17a11.88,11.88,0,0,0,0-16.8L-41,174.08h-60.69v-8H-41L3.31,121.79a11.89,11.89,0,0,0,0-16.81Z"/><path class="cls-2" d="M129.1,166.08l44.29-44.29a11.89,11.89,0,0,0,0-16.81L129.1,60.69H68.4v-8h60.7L181.79,0h-85V4H36.06L-8.23,48.29a11.89,11.89,0,0,0,0,16.81l44.29,44.29H96.75v8H36.06L-8.23,161.68a11.88,11.88,0,0,0,0,16.8l44.29,44.29H96.75v8H36.06L-8.23,275.06a11.89,11.89,0,0,0,0,16.81l44.29,44.29H96.75v8H36.06L-8.23,388.45a11.88,11.88,0,0,0,0,16.8l44.29,44.29H96.75v8H36.06L-8.23,501.83a11.89,11.89,0,0,0,0,16.81l44.29,44.29H96.75v8H36.06L-8.23,615.22a11.89,11.89,0,0,0,0,16.81l44.29,44.29H96.75v4h85l-52.69-52.7H68.4v-8h60.7l44.29-44.29a11.88,11.88,0,0,0,0-16.8L129.1,514.24H68.4v-8h60.7L173.39,462a11.89,11.89,0,0,0,0-16.81L129.1,400.85H68.4v-8h60.7l44.29-44.29a11.88,11.88,0,0,0,0-16.8l-44.29-44.3H68.4v-8h60.7l44.29-44.29a11.88,11.88,0,0,0,0-16.8L129.1,174.08H68.4v-8Z"/></pattern></defs><title>tyre</title><g class="cls-3"><g id="Layer_2" data-name="Layer 2"><g id="Layer_1-2" data-name="Layer 1"><rect class="cls-4" width="226.77" height="226.77"/></g></g></g></svg>
